<svg width="1131" height="255" viewBox="0 0 1131 255" fill="none" xmlns="http://www.w3.org/2000/svg">
<g clip-path="url(#clip0_706_402)">
<rect width="1131" height="255" fill="white"/>
<circle cx="1043" cy="100" r="185" fill="#0D0D0D"/>
<circle cx="74.5" cy="290.5" r="190.5" fill="#0D0D0D"/>
<path d="M292.988 165.07C286.966 167.349 280.13 168.488 272.48 168.488C247.415 168.488 234.883 156.363 234.883 132.111C234.883 109.162 247.415 97.6875 272.48 97.6875C280.13 97.6875 286.966 98.8268 292.988 101.105V112.824C286.966 110.22 280.456 108.918 273.457 108.918C256.693 108.918 248.311 116.649 248.311 132.111C248.311 148.876 256.693 157.258 273.457 157.258C280.456 157.258 286.966 155.956 292.988 153.352V165.07ZM316.182 132.893C316.182 149.136 323.392 157.258 337.812 157.258C351.875 157.258 358.906 149.136 358.906 132.893C358.906 116.91 351.875 108.918 337.812 108.918C323.392 108.918 316.182 116.91 316.182 132.893ZM302.754 133.186C302.754 109.52 314.44 97.6875 337.812 97.6875C360.827 97.6875 372.334 109.52 372.334 133.186C372.334 156.721 360.827 168.488 337.812 168.488C315.482 168.488 303.796 156.721 302.754 133.186ZM391.768 168H378.486L408.125 98.1758H422.041L452.314 168H438.398L430.439 148.957H407.246L411.689 137.727H425.752L414.766 111.506L391.768 168ZM473.799 98.1758V156.77H501.533V168H460.859V98.1758H473.799ZM561.592 98.1758V109.309H526.631V126.887H559.932V138.459H526.484V156.77H562.275V168H513.789V98.1758H561.592ZM573.018 165.07V153.352C580.016 155.956 587.926 157.258 596.748 157.258C607.458 157.258 612.812 153.677 612.812 146.516C612.812 141.307 609.525 138.703 602.949 138.703H592.012C577.721 138.703 570.576 132.193 570.576 119.172C570.576 104.849 580.749 97.6875 601.094 97.6875C608.906 97.6875 616.312 98.8268 623.311 101.105V112.824C616.312 110.22 608.906 108.918 601.094 108.918C589.375 108.918 583.516 112.336 583.516 119.172C583.516 124.38 586.348 126.984 592.012 126.984H602.949C618.151 126.984 625.752 133.495 625.752 146.516C625.752 161.164 616.084 168.488 596.748 168.488C587.926 168.488 580.016 167.349 573.018 165.07ZM692.402 165.07C686.38 167.349 679.544 168.488 671.895 168.488C646.829 168.488 634.297 156.363 634.297 132.111C634.297 109.162 646.829 97.6875 671.895 97.6875C679.544 97.6875 686.38 98.8268 692.402 101.105V112.824C686.38 110.22 679.87 108.918 672.871 108.918C656.107 108.918 647.725 116.649 647.725 132.111C647.725 148.876 656.107 157.258 672.871 157.258C679.87 157.258 686.38 155.956 692.402 153.352V165.07ZM752.412 98.1758V109.309H717.451V126.887H750.752V138.459H717.305V156.77H753.096V168H704.609V98.1758H752.412ZM792.402 156.77C806.888 156.77 814.131 148.241 814.131 131.184C814.131 116.665 806.888 109.406 792.402 109.406H777.998V156.77H792.402ZM765.059 168V98.1758H792.402C815.514 98.1758 827.07 109.178 827.07 131.184C827.07 155.728 815.514 168 792.402 168H765.059ZM860.078 137.238V147.492H835.664V137.238H860.078Z" fill="#0D0D0D"/>
<path d="M879.463 168H866.182L895.82 98.1758H909.736L940.01 168H926.094L918.135 148.957H894.941L899.385 137.727H913.447L902.461 111.506L879.463 168ZM948.555 168V98.1758H979.805C994.062 98.1758 1001.19 104.735 1001.19 117.854C1001.19 132.079 991.442 140.689 971.943 143.684L970.088 132.16C981.807 130.044 987.666 125.406 987.666 118.244C987.666 112.45 984.769 109.553 978.975 109.553H961.494V168H948.555ZM1022.72 98.1758V168H1009.79V98.1758H1022.72Z" fill="#FEFEFE"/>
<path d="M919.206 179.552C920.502 179.552 921.642 179.804 922.626 180.308C923.61 180.812 924.366 181.52 924.894 182.432C925.422 183.332 925.686 184.37 925.686 185.546C925.686 186.482 925.536 187.376 925.236 188.228C924.936 189.08 924.504 189.776 923.94 190.316C923.376 190.844 922.716 191.108 921.96 191.108C921.372 191.108 920.922 190.952 920.61 190.64C920.31 190.316 920.148 189.878 920.124 189.326C919.752 189.878 919.278 190.316 918.702 190.64C918.126 190.952 917.514 191.108 916.866 191.108C915.954 191.108 915.24 190.832 914.724 190.28C914.22 189.728 913.968 188.978 913.968 188.03C913.968 187.142 914.154 186.314 914.526 185.546C914.898 184.766 915.414 184.142 916.074 183.674C916.734 183.206 917.484 182.972 918.324 182.972C918.924 182.972 919.428 183.104 919.836 183.368C920.256 183.632 920.556 184.016 920.736 184.52L920.97 183.188H922.068L921.15 188.426C921.114 188.642 921.096 188.84 921.096 189.02C921.096 189.824 921.444 190.226 922.14 190.226C922.656 190.226 923.1 189.992 923.472 189.524C923.856 189.056 924.144 188.468 924.336 187.76C924.54 187.04 924.642 186.326 924.642 185.618C924.642 184.562 924.414 183.65 923.958 182.882C923.514 182.102 922.872 181.508 922.032 181.1C921.192 180.68 920.196 180.47 919.044 180.47C917.604 180.47 916.302 180.824 915.138 181.532C913.974 182.24 913.062 183.2 912.402 184.412C911.742 185.624 911.412 186.962 911.412 188.426C911.4 190.058 911.892 191.324 912.888 192.224C913.884 193.136 915.246 193.592 916.974 193.592C918.066 193.592 919.056 193.388 919.944 192.98L920.142 193.862C919.086 194.294 917.94 194.51 916.704 194.51C915.444 194.51 914.334 194.264 913.374 193.772C912.414 193.292 911.67 192.602 911.142 191.702C910.614 190.802 910.35 189.752 910.35 188.552C910.35 186.884 910.728 185.366 911.484 183.998C912.252 182.618 913.308 181.532 914.652 180.74C916.008 179.948 917.526 179.552 919.206 179.552ZM917.226 190.118C917.766 190.118 918.264 189.974 918.72 189.686C919.176 189.398 919.548 188.996 919.836 188.48C920.136 187.964 920.322 187.376 920.394 186.716C920.418 186.5 920.43 186.344 920.43 186.248C920.43 185.576 920.244 185.03 919.872 184.61C919.512 184.178 918.996 183.962 918.324 183.962C917.688 183.962 917.13 184.148 916.65 184.52C916.17 184.892 915.798 185.378 915.534 185.978C915.27 186.566 915.138 187.19 915.138 187.85C915.138 188.546 915.318 189.098 915.678 189.506C916.038 189.914 916.554 190.118 917.226 190.118ZM941.435 181.172L938.357 191H937.097L934.379 182.756L931.661 191H930.383L927.305 181.172H928.583L931.031 189.722L933.785 181.172H935.045L937.763 189.74L940.193 181.172H941.435ZM942.577 186.068C942.577 185.06 942.775 184.178 943.171 183.422C943.579 182.654 944.137 182.066 944.845 181.658C945.565 181.238 946.375 181.028 947.275 181.028C948.211 181.028 949.015 181.244 949.687 181.676C950.371 182.108 950.863 182.66 951.163 183.332V181.172H952.423V191H951.163V188.822C950.851 189.494 950.353 190.052 949.669 190.496C948.997 190.928 948.193 191.144 947.257 191.144C946.369 191.144 945.565 190.934 944.845 190.514C944.137 190.094 943.579 189.5 943.171 188.732C942.775 187.964 942.577 187.076 942.577 186.068ZM951.163 186.086C951.163 185.294 951.001 184.598 950.677 183.998C950.353 183.398 949.909 182.936 949.345 182.612C948.793 182.288 948.181 182.126 947.509 182.126C946.813 182.126 946.189 182.282 945.637 182.594C945.085 182.906 944.647 183.362 944.323 183.962C944.011 184.55 943.855 185.252 943.855 186.068C943.855 186.872 944.011 187.58 944.323 188.192C944.647 188.792 945.085 189.254 945.637 189.578C946.189 189.89 946.813 190.046 947.509 190.046C948.181 190.046 948.793 189.884 949.345 189.56C949.909 189.236 950.353 188.774 950.677 188.174C951.001 187.574 951.163 186.878 951.163 186.086ZM956.559 182.918C956.835 182.306 957.255 181.832 957.819 181.496C958.395 181.16 959.097 180.992 959.925 180.992V182.306H959.583C958.671 182.306 957.939 182.552 957.387 183.044C956.835 183.536 956.559 184.358 956.559 185.51V191H955.299V181.172H956.559V182.918ZM961.245 186.068C961.245 185.06 961.449 184.178 961.857 183.422C962.265 182.654 962.823 182.066 963.531 181.658C964.251 181.238 965.061 181.028 965.961 181.028C966.825 181.028 967.605 181.238 968.301 181.658C968.997 182.078 969.507 182.624 969.831 183.296V177.68H971.091V191H969.831V188.804C969.531 189.488 969.039 190.052 968.355 190.496C967.671 190.928 966.867 191.144 965.943 191.144C965.043 191.144 964.233 190.934 963.513 190.514C962.805 190.094 962.247 189.5 961.839 188.732C961.443 187.964 961.245 187.076 961.245 186.068ZM969.831 186.086C969.831 185.294 969.669 184.598 969.345 183.998C969.021 183.398 968.577 182.936 968.013 182.612C967.461 182.288 966.849 182.126 966.177 182.126C965.481 182.126 964.857 182.282 964.305 182.594C963.753 182.906 963.315 183.362 962.991 183.962C962.679 184.55 962.523 185.252 962.523 186.068C962.523 186.872 962.679 187.58 962.991 188.192C963.315 188.792 963.753 189.254 964.305 189.578C964.857 189.89 965.481 190.046 966.177 190.046C966.849 190.046 967.461 189.884 968.013 189.56C968.577 189.236 969.021 188.774 969.345 188.174C969.669 187.574 969.831 186.878 969.831 186.086ZM977.459 189.776L980.771 181.172H982.103L978.161 191H976.739L972.797 181.172H974.147L977.459 189.776ZM984.441 179.318C984.189 179.318 983.973 179.228 983.793 179.048C983.613 178.868 983.523 178.646 983.523 178.382C983.523 178.118 983.613 177.902 983.793 177.734C983.973 177.554 984.189 177.464 984.441 177.464C984.693 177.464 984.909 177.554 985.089 177.734C985.269 177.902 985.359 178.118 985.359 178.382C985.359 178.646 985.269 178.868 985.089 179.048C984.909 179.228 984.693 179.318 984.441 179.318ZM985.071 181.172V191H983.811V181.172H985.071ZM991.308 191.144C990.18 191.144 989.256 190.886 988.536 190.37C987.828 189.842 987.432 189.128 987.348 188.228H988.644C988.704 188.78 988.962 189.23 989.418 189.578C989.886 189.914 990.51 190.082 991.29 190.082C991.974 190.082 992.508 189.92 992.892 189.596C993.288 189.272 993.486 188.87 993.486 188.39C993.486 188.054 993.378 187.778 993.162 187.562C992.946 187.346 992.67 187.178 992.334 187.058C992.01 186.926 991.566 186.788 991.002 186.644C990.27 186.452 989.676 186.26 989.22 186.068C988.764 185.876 988.374 185.594 988.05 185.222C987.738 184.838 987.582 184.328 987.582 183.692C987.582 183.212 987.726 182.768 988.014 182.36C988.302 181.952 988.71 181.628 989.238 181.388C989.766 181.148 990.366 181.028 991.038 181.028C992.094 181.028 992.946 181.298 993.594 181.838C994.242 182.366 994.59 183.098 994.638 184.034H993.378C993.342 183.458 993.114 182.996 992.694 182.648C992.286 182.288 991.722 182.108 991.002 182.108C990.366 182.108 989.85 182.258 989.454 182.558C989.058 182.858 988.86 183.23 988.86 183.674C988.86 184.058 988.974 184.376 989.202 184.628C989.442 184.868 989.736 185.06 990.084 185.204C990.432 185.336 990.9 185.486 991.488 185.654C992.196 185.846 992.76 186.032 993.18 186.212C993.6 186.392 993.96 186.656 994.26 187.004C994.56 187.352 994.716 187.814 994.728 188.39C994.728 188.918 994.584 189.392 994.296 189.812C994.008 190.22 993.606 190.544 993.09 190.784C992.574 191.024 991.98 191.144 991.308 191.144ZM1005.61 181.172V191H1004.35V189.272C1004.07 189.884 1003.62 190.352 1003.02 190.676C1002.42 191 1001.75 191.162 1001.01 191.162C999.83 191.162 998.87 190.802 998.126 190.082C997.382 189.35 997.01 188.294 997.01 186.914V181.172H998.252V186.77C998.252 187.838 998.516 188.654 999.044 189.218C999.584 189.782 1000.32 190.064 1001.24 190.064C1002.19 190.064 1002.94 189.764 1003.51 189.164C1004.07 188.564 1004.35 187.682 1004.35 186.518V181.172H1005.61ZM1007.91 186.068C1007.91 185.06 1008.11 184.178 1008.51 183.422C1008.92 182.654 1009.47 182.066 1010.18 181.658C1010.9 181.238 1011.71 181.028 1012.61 181.028C1013.55 181.028 1014.35 181.244 1015.02 181.676C1015.71 182.108 1016.2 182.66 1016.5 183.332V181.172H1017.76V191H1016.5V188.822C1016.19 189.494 1015.69 190.052 1015.01 190.496C1014.33 190.928 1013.53 191.144 1012.59 191.144C1011.71 191.144 1010.9 190.934 1010.18 190.514C1009.47 190.094 1008.92 189.5 1008.51 188.732C1008.11 187.964 1007.91 187.076 1007.91 186.068ZM1016.5 186.086C1016.5 185.294 1016.34 184.598 1016.01 183.998C1015.69 183.398 1015.25 182.936 1014.68 182.612C1014.13 182.288 1013.52 182.126 1012.85 182.126C1012.15 182.126 1011.53 182.282 1010.97 182.594C1010.42 182.906 1009.98 183.362 1009.66 183.962C1009.35 184.55 1009.19 185.252 1009.19 186.068C1009.19 186.872 1009.35 187.58 1009.66 188.192C1009.98 188.792 1010.42 189.254 1010.97 189.578C1011.53 189.89 1012.15 190.046 1012.85 190.046C1013.52 190.046 1014.13 189.884 1014.68 189.56C1015.25 189.236 1015.69 188.774 1016.01 188.174C1016.34 187.574 1016.5 186.878 1016.5 186.086ZM1021.9 177.68V191H1020.64V177.68H1021.9Z" fill="white"/>
<rect x="117" y="88" width="106" height="38" rx="5" fill="#0D0D0D"/>
<rect x="99" y="137" width="93" height="38" rx="5" fill="#FEFEFE"/>
</g>
<defs>
<clipPath id="clip0_706_402">
<rect width="1131" height="255" fill="white"/>
</clipPath>
</defs>
</svg>
