<svg width="1131" height="255" viewBox="0 0 1131 255" fill="none" xmlns="http://www.w3.org/2000/svg">
<g clip-path="url(#clip0_706_402)">
<rect width="1131" height="255" fill="white"/>
<circle cx="1055" cy="100" r="185" fill="#0D0D0D"/>
<circle cx="138.5" cy="202.5" r="190.5" fill="#0D0D0D"/>
<path d="M304.988 165.07C298.966 167.349 292.13 168.488 284.48 168.488C259.415 168.488 246.883 156.363 246.883 132.111C246.883 109.162 259.415 97.6875 284.48 97.6875C292.13 97.6875 298.966 98.8268 304.988 101.105V112.824C298.966 110.22 292.456 108.918 285.457 108.918C268.693 108.918 260.311 116.649 260.311 132.111C260.311 148.876 268.693 157.258 285.457 157.258C292.456 157.258 298.966 155.956 304.988 153.352V165.07Z" fill="white"/>
<path d="M328.182 132.893C328.182 149.136 335.392 157.258 349.812 157.258C363.875 157.258 370.906 149.136 370.906 132.893C370.906 116.91 363.875 108.918 349.812 108.918C335.392 108.918 328.182 116.91 328.182 132.893ZM314.754 133.186C314.754 109.52 326.44 97.6875 349.812 97.6875C372.827 97.6875 384.334 109.52 384.334 133.186C384.334 156.721 372.827 168.488 349.812 168.488C327.482 168.488 315.796 156.721 314.754 133.186ZM403.768 168H390.486L420.125 98.1758H434.041L464.314 168H450.398L442.439 148.957H419.246L423.689 137.727H437.752L426.766 111.506L403.768 168ZM485.799 98.1758V156.77H513.533V168H472.859V98.1758H485.799ZM573.592 98.1758V109.309H538.631V126.887H571.932V138.459H538.484V156.77H574.275V168H525.789V98.1758H573.592ZM585.018 165.07V153.352C592.016 155.956 599.926 157.258 608.748 157.258C619.458 157.258 624.812 153.677 624.812 146.516C624.812 141.307 621.525 138.703 614.949 138.703H604.012C589.721 138.703 582.576 132.193 582.576 119.172C582.576 104.849 592.749 97.6875 613.094 97.6875C620.906 97.6875 628.312 98.8268 635.311 101.105V112.824C628.312 110.22 620.906 108.918 613.094 108.918C601.375 108.918 595.516 112.336 595.516 119.172C595.516 124.38 598.348 126.984 604.012 126.984H614.949C630.151 126.984 637.752 133.495 637.752 146.516C637.752 161.164 628.084 168.488 608.748 168.488C599.926 168.488 592.016 167.349 585.018 165.07ZM704.402 165.07C698.38 167.349 691.544 168.488 683.895 168.488C658.829 168.488 646.297 156.363 646.297 132.111C646.297 109.162 658.829 97.6875 683.895 97.6875C691.544 97.6875 698.38 98.8268 704.402 101.105V112.824C698.38 110.22 691.87 108.918 684.871 108.918C668.107 108.918 659.725 116.649 659.725 132.111C659.725 148.876 668.107 157.258 684.871 157.258C691.87 157.258 698.38 155.956 704.402 153.352V165.07ZM764.412 98.1758V109.309H729.451V126.887H762.752V138.459H729.305V156.77H765.096V168H716.609V98.1758H764.412ZM804.402 156.77C818.888 156.77 826.131 148.241 826.131 131.184C826.131 116.665 818.888 109.406 804.402 109.406H789.998V156.77H804.402ZM777.059 168V98.1758H804.402C827.514 98.1758 839.07 109.178 839.07 131.184C839.07 155.728 827.514 168 804.402 168H777.059ZM872.078 137.238V147.492H847.664V137.238H872.078Z" fill="#0D0D0D"/>
<path d="M891.463 168H878.182L907.82 98.1758H921.736L952.01 168H938.094L930.135 148.957H906.941L911.385 137.727H925.447L914.461 111.506L891.463 168ZM960.555 168V98.1758H991.805C1006.06 98.1758 1013.19 104.735 1013.19 117.854C1013.19 132.079 1003.44 140.689 983.943 143.684L982.088 132.16C993.807 130.044 999.666 125.406 999.666 118.244C999.666 112.45 996.769 109.553 990.975 109.553H973.494V168H960.555ZM1034.72 98.1758V168H1021.79V98.1758H1034.72Z" fill="#FEFEFE"/>
<path d="M931.206 179.552C932.502 179.552 933.642 179.804 934.626 180.308C935.61 180.812 936.366 181.52 936.894 182.432C937.422 183.332 937.686 184.37 937.686 185.546C937.686 186.482 937.536 187.376 937.236 188.228C936.936 189.08 936.504 189.776 935.94 190.316C935.376 190.844 934.716 191.108 933.96 191.108C933.372 191.108 932.922 190.952 932.61 190.64C932.31 190.316 932.148 189.878 932.124 189.326C931.752 189.878 931.278 190.316 930.702 190.64C930.126 190.952 929.514 191.108 928.866 191.108C927.954 191.108 927.24 190.832 926.724 190.28C926.22 189.728 925.968 188.978 925.968 188.03C925.968 187.142 926.154 186.314 926.526 185.546C926.898 184.766 927.414 184.142 928.074 183.674C928.734 183.206 929.484 182.972 930.324 182.972C930.924 182.972 931.428 183.104 931.836 183.368C932.256 183.632 932.556 184.016 932.736 184.52L932.97 183.188H934.068L933.15 188.426C933.114 188.642 933.096 188.84 933.096 189.02C933.096 189.824 933.444 190.226 934.14 190.226C934.656 190.226 935.1 189.992 935.472 189.524C935.856 189.056 936.144 188.468 936.336 187.76C936.54 187.04 936.642 186.326 936.642 185.618C936.642 184.562 936.414 183.65 935.958 182.882C935.514 182.102 934.872 181.508 934.032 181.1C933.192 180.68 932.196 180.47 931.044 180.47C929.604 180.47 928.302 180.824 927.138 181.532C925.974 182.24 925.062 183.2 924.402 184.412C923.742 185.624 923.412 186.962 923.412 188.426C923.4 190.058 923.892 191.324 924.888 192.224C925.884 193.136 927.246 193.592 928.974 193.592C930.066 193.592 931.056 193.388 931.944 192.98L932.142 193.862C931.086 194.294 929.94 194.51 928.704 194.51C927.444 194.51 926.334 194.264 925.374 193.772C924.414 193.292 923.67 192.602 923.142 191.702C922.614 190.802 922.35 189.752 922.35 188.552C922.35 186.884 922.728 185.366 923.484 183.998C924.252 182.618 925.308 181.532 926.652 180.74C928.008 179.948 929.526 179.552 931.206 179.552ZM929.226 190.118C929.766 190.118 930.264 189.974 930.72 189.686C931.176 189.398 931.548 188.996 931.836 188.48C932.136 187.964 932.322 187.376 932.394 186.716C932.418 186.5 932.43 186.344 932.43 186.248C932.43 185.576 932.244 185.03 931.872 184.61C931.512 184.178 930.996 183.962 930.324 183.962C929.688 183.962 929.13 184.148 928.65 184.52C928.17 184.892 927.798 185.378 927.534 185.978C927.27 186.566 927.138 187.19 927.138 187.85C927.138 188.546 927.318 189.098 927.678 189.506C928.038 189.914 928.554 190.118 929.226 190.118ZM953.435 181.172L950.357 191H949.097L946.379 182.756L943.661 191H942.383L939.305 181.172H940.583L943.031 189.722L945.785 181.172H947.045L949.763 189.74L952.193 181.172H953.435ZM954.577 186.068C954.577 185.06 954.775 184.178 955.171 183.422C955.579 182.654 956.137 182.066 956.845 181.658C957.565 181.238 958.375 181.028 959.275 181.028C960.211 181.028 961.015 181.244 961.687 181.676C962.371 182.108 962.863 182.66 963.163 183.332V181.172H964.423V191H963.163V188.822C962.851 189.494 962.353 190.052 961.669 190.496C960.997 190.928 960.193 191.144 959.257 191.144C958.369 191.144 957.565 190.934 956.845 190.514C956.137 190.094 955.579 189.5 955.171 188.732C954.775 187.964 954.577 187.076 954.577 186.068ZM963.163 186.086C963.163 185.294 963.001 184.598 962.677 183.998C962.353 183.398 961.909 182.936 961.345 182.612C960.793 182.288 960.181 182.126 959.509 182.126C958.813 182.126 958.189 182.282 957.637 182.594C957.085 182.906 956.647 183.362 956.323 183.962C956.011 184.55 955.855 185.252 955.855 186.068C955.855 186.872 956.011 187.58 956.323 188.192C956.647 188.792 957.085 189.254 957.637 189.578C958.189 189.89 958.813 190.046 959.509 190.046C960.181 190.046 960.793 189.884 961.345 189.56C961.909 189.236 962.353 188.774 962.677 188.174C963.001 187.574 963.163 186.878 963.163 186.086ZM968.559 182.918C968.835 182.306 969.255 181.832 969.819 181.496C970.395 181.16 971.097 180.992 971.925 180.992V182.306H971.583C970.671 182.306 969.939 182.552 969.387 183.044C968.835 183.536 968.559 184.358 968.559 185.51V191H967.299V181.172H968.559V182.918ZM973.245 186.068C973.245 185.06 973.449 184.178 973.857 183.422C974.265 182.654 974.823 182.066 975.531 181.658C976.251 181.238 977.061 181.028 977.961 181.028C978.825 181.028 979.605 181.238 980.301 181.658C980.997 182.078 981.507 182.624 981.831 183.296V177.68H983.091V191H981.831V188.804C981.531 189.488 981.039 190.052 980.355 190.496C979.671 190.928 978.867 191.144 977.943 191.144C977.043 191.144 976.233 190.934 975.513 190.514C974.805 190.094 974.247 189.5 973.839 188.732C973.443 187.964 973.245 187.076 973.245 186.068ZM981.831 186.086C981.831 185.294 981.669 184.598 981.345 183.998C981.021 183.398 980.577 182.936 980.013 182.612C979.461 182.288 978.849 182.126 978.177 182.126C977.481 182.126 976.857 182.282 976.305 182.594C975.753 182.906 975.315 183.362 974.991 183.962C974.679 184.55 974.523 185.252 974.523 186.068C974.523 186.872 974.679 187.58 974.991 188.192C975.315 188.792 975.753 189.254 976.305 189.578C976.857 189.89 977.481 190.046 978.177 190.046C978.849 190.046 979.461 189.884 980.013 189.56C980.577 189.236 981.021 188.774 981.345 188.174C981.669 187.574 981.831 186.878 981.831 186.086ZM989.459 189.776L992.771 181.172H994.103L990.161 191H988.739L984.797 181.172H986.147L989.459 189.776ZM996.441 179.318C996.189 179.318 995.973 179.228 995.793 179.048C995.613 178.868 995.523 178.646 995.523 178.382C995.523 178.118 995.613 177.902 995.793 177.734C995.973 177.554 996.189 177.464 996.441 177.464C996.693 177.464 996.909 177.554 997.089 177.734C997.269 177.902 997.359 178.118 997.359 178.382C997.359 178.646 997.269 178.868 997.089 179.048C996.909 179.228 996.693 179.318 996.441 179.318ZM997.071 181.172V191H995.811V181.172H997.071ZM1003.31 191.144C1002.18 191.144 1001.26 190.886 1000.54 190.37C999.828 189.842 999.432 189.128 999.348 188.228H1000.64C1000.7 188.78 1000.96 189.23 1001.42 189.578C1001.89 189.914 1002.51 190.082 1003.29 190.082C1003.97 190.082 1004.51 189.92 1004.89 189.596C1005.29 189.272 1005.49 188.87 1005.49 188.39C1005.49 188.054 1005.38 187.778 1005.16 187.562C1004.95 187.346 1004.67 187.178 1004.33 187.058C1004.01 186.926 1003.57 186.788 1003 186.644C1002.27 186.452 1001.68 186.26 1001.22 186.068C1000.76 185.876 1000.37 185.594 1000.05 185.222C999.738 184.838 999.582 184.328 999.582 183.692C999.582 183.212 999.726 182.768 1000.01 182.36C1000.3 181.952 1000.71 181.628 1001.24 181.388C1001.77 181.148 1002.37 181.028 1003.04 181.028C1004.09 181.028 1004.95 181.298 1005.59 181.838C1006.24 182.366 1006.59 183.098 1006.64 184.034H1005.38C1005.34 183.458 1005.11 182.996 1004.69 182.648C1004.29 182.288 1003.72 182.108 1003 182.108C1002.37 182.108 1001.85 182.258 1001.45 182.558C1001.06 182.858 1000.86 183.23 1000.86 183.674C1000.86 184.058 1000.97 184.376 1001.2 184.628C1001.44 184.868 1001.74 185.06 1002.08 185.204C1002.43 185.336 1002.9 185.486 1003.49 185.654C1004.2 185.846 1004.76 186.032 1005.18 186.212C1005.6 186.392 1005.96 186.656 1006.26 187.004C1006.56 187.352 1006.72 187.814 1006.73 188.39C1006.73 188.918 1006.58 189.392 1006.3 189.812C1006.01 190.22 1005.61 190.544 1005.09 190.784C1004.57 191.024 1003.98 191.144 1003.31 191.144ZM1017.61 181.172V191H1016.35V189.272C1016.07 189.884 1015.62 190.352 1015.02 190.676C1014.42 191 1013.75 191.162 1013.01 191.162C1011.83 191.162 1010.87 190.802 1010.13 190.082C1009.38 189.35 1009.01 188.294 1009.01 186.914V181.172H1010.25V186.77C1010.25 187.838 1010.52 188.654 1011.04 189.218C1011.58 189.782 1012.32 190.064 1013.24 190.064C1014.19 190.064 1014.94 189.764 1015.51 189.164C1016.07 188.564 1016.35 187.682 1016.35 186.518V181.172H1017.61ZM1019.91 186.068C1019.91 185.06 1020.11 184.178 1020.51 183.422C1020.92 182.654 1021.47 182.066 1022.18 181.658C1022.9 181.238 1023.71 181.028 1024.61 181.028C1025.55 181.028 1026.35 181.244 1027.02 181.676C1027.71 182.108 1028.2 182.66 1028.5 183.332V181.172H1029.76V191H1028.5V188.822C1028.19 189.494 1027.69 190.052 1027.01 190.496C1026.33 190.928 1025.53 191.144 1024.59 191.144C1023.71 191.144 1022.9 190.934 1022.18 190.514C1021.47 190.094 1020.92 189.5 1020.51 188.732C1020.11 187.964 1019.91 187.076 1019.91 186.068ZM1028.5 186.086C1028.5 185.294 1028.34 184.598 1028.01 183.998C1027.69 183.398 1027.25 182.936 1026.68 182.612C1026.13 182.288 1025.52 182.126 1024.85 182.126C1024.15 182.126 1023.53 182.282 1022.97 182.594C1022.42 182.906 1021.98 183.362 1021.66 183.962C1021.35 184.55 1021.19 185.252 1021.19 186.068C1021.19 186.872 1021.35 187.58 1021.66 188.192C1021.98 188.792 1022.42 189.254 1022.97 189.578C1023.53 189.89 1024.15 190.046 1024.85 190.046C1025.52 190.046 1026.13 189.884 1026.68 189.56C1027.25 189.236 1027.69 188.774 1028.01 188.174C1028.34 187.574 1028.5 186.878 1028.5 186.086ZM1033.9 177.68V191H1032.64V177.68H1033.9Z" fill="white"/>
<rect x="79" y="94" width="106" height="38" rx="5" fill="#FEFEFE"/>
<rect x="127" y="139" width="93" height="38" rx="5" fill="#FEFEFE"/>
</g>
<defs>
<clipPath id="clip0_706_402">
<rect width="1131" height="255" rx="10" fill="white"/>
</clipPath>
</defs>
</svg>
