<svg width="1131" height="255" viewBox="0 0 1131 255" fill="none" xmlns="http://www.w3.org/2000/svg">
<g clip-path="url(#clip0_706_402)">
<rect width="1131" height="255" fill="white"/>
<circle cx="1001" cy="92" r="185" fill="#0D0D0D"/>
<circle cx="132.5" cy="326.5" r="201.5" fill="#0D0D0D"/>
<path d="M329.988 168.07C323.966 170.349 317.13 171.488 309.48 171.488C284.415 171.488 271.883 159.363 271.883 135.111C271.883 112.162 284.415 100.688 309.48 100.688C317.13 100.688 323.966 101.827 329.988 104.105V115.824C323.966 113.22 317.456 111.918 310.457 111.918C293.693 111.918 285.311 119.649 285.311 135.111C285.311 151.876 293.693 160.258 310.457 160.258C317.456 160.258 323.966 158.956 329.988 156.352V168.07ZM353.182 135.893C353.182 152.136 360.392 160.258 374.812 160.258C388.875 160.258 395.906 152.136 395.906 135.893C395.906 119.91 388.875 111.918 374.812 111.918C360.392 111.918 353.182 119.91 353.182 135.893ZM339.754 136.186C339.754 112.52 351.44 100.688 374.812 100.688C397.827 100.688 409.334 112.52 409.334 136.186C409.334 159.721 397.827 171.488 374.812 171.488C352.482 171.488 340.796 159.721 339.754 136.186ZM428.768 171H415.486L445.125 101.176H459.041L489.314 171H475.398L467.439 151.957H444.246L448.689 140.727H462.752L451.766 114.506L428.768 171ZM510.799 101.176V159.77H538.533V171H497.859V101.176H510.799ZM598.592 101.176V112.309H563.631V129.887H596.932V141.459H563.484V159.77H599.275V171H550.789V101.176H598.592ZM610.018 168.07V156.352C617.016 158.956 624.926 160.258 633.748 160.258C644.458 160.258 649.812 156.677 649.812 149.516C649.812 144.307 646.525 141.703 639.949 141.703H629.012C614.721 141.703 607.576 135.193 607.576 122.172C607.576 107.849 617.749 100.688 638.094 100.688C645.906 100.688 653.312 101.827 660.311 104.105V115.824C653.312 113.22 645.906 111.918 638.094 111.918C626.375 111.918 620.516 115.336 620.516 122.172C620.516 127.38 623.348 129.984 629.012 129.984H639.949C655.151 129.984 662.752 136.495 662.752 149.516C662.752 164.164 653.084 171.488 633.748 171.488C624.926 171.488 617.016 170.349 610.018 168.07ZM729.402 168.07C723.38 170.349 716.544 171.488 708.895 171.488C683.829 171.488 671.297 159.363 671.297 135.111C671.297 112.162 683.829 100.688 708.895 100.688C716.544 100.688 723.38 101.827 729.402 104.105V115.824C723.38 113.22 716.87 111.918 709.871 111.918C693.107 111.918 684.725 119.649 684.725 135.111C684.725 151.876 693.107 160.258 709.871 160.258C716.87 160.258 723.38 158.956 729.402 156.352V168.07ZM789.412 101.176V112.309H754.451V129.887H787.752V141.459H754.305V159.77H790.096V171H741.609V101.176H789.412ZM824.031 140.238V150.492H799.617V140.238H824.031Z" fill="#0D0D0D"/>
<path d="M843.416 171H830.135L859.773 101.176H873.689L903.963 171H890.047L882.088 151.957H858.895L863.338 140.727H877.4L866.414 114.506L843.416 171ZM912.508 171V101.176H943.758C958.016 101.176 965.145 107.735 965.145 120.854C965.145 135.079 955.395 143.689 935.896 146.684L934.041 135.16C945.76 133.044 951.619 128.406 951.619 121.244C951.619 115.45 948.722 112.553 942.928 112.553H925.447V171H912.508ZM986.678 101.176V171H973.738V101.176H986.678Z" fill="#FEFEFE"/>
<path d="M887.072 182.824C888.224 182.824 889.237 183.048 890.112 183.496C890.987 183.944 891.659 184.573 892.128 185.384C892.597 186.184 892.832 187.107 892.832 188.152C892.832 188.984 892.699 189.779 892.432 190.536C892.165 191.293 891.781 191.912 891.28 192.392C890.779 192.861 890.192 193.096 889.52 193.096C888.997 193.096 888.597 192.957 888.32 192.68C888.053 192.392 887.909 192.003 887.888 191.512C887.557 192.003 887.136 192.392 886.624 192.68C886.112 192.957 885.568 193.096 884.992 193.096C884.181 193.096 883.547 192.851 883.088 192.36C882.64 191.869 882.416 191.203 882.416 190.36C882.416 189.571 882.581 188.835 882.912 188.152C883.243 187.459 883.701 186.904 884.288 186.488C884.875 186.072 885.541 185.864 886.288 185.864C886.821 185.864 887.269 185.981 887.632 186.216C888.005 186.451 888.272 186.792 888.432 187.24L888.64 186.056H889.616L888.8 190.712C888.768 190.904 888.752 191.08 888.752 191.24C888.752 191.955 889.061 192.312 889.68 192.312C890.139 192.312 890.533 192.104 890.864 191.688C891.205 191.272 891.461 190.749 891.632 190.12C891.813 189.48 891.904 188.845 891.904 188.216C891.904 187.277 891.701 186.467 891.296 185.784C890.901 185.091 890.331 184.563 889.584 184.2C888.837 183.827 887.952 183.64 886.928 183.64C885.648 183.64 884.491 183.955 883.456 184.584C882.421 185.213 881.611 186.067 881.024 187.144C880.437 188.221 880.144 189.411 880.144 190.712C880.133 192.163 880.571 193.288 881.456 194.088C882.341 194.899 883.552 195.304 885.088 195.304C886.059 195.304 886.939 195.123 887.728 194.76L887.904 195.544C886.965 195.928 885.947 196.12 884.848 196.12C883.728 196.12 882.741 195.901 881.888 195.464C881.035 195.037 880.373 194.424 879.904 193.624C879.435 192.824 879.2 191.891 879.2 190.824C879.2 189.341 879.536 187.992 880.208 186.776C880.891 185.549 881.829 184.584 883.024 183.88C884.229 183.176 885.579 182.824 887.072 182.824ZM885.312 192.216C885.792 192.216 886.235 192.088 886.64 191.832C887.045 191.576 887.376 191.219 887.632 190.76C887.899 190.301 888.064 189.779 888.128 189.192C888.149 189 888.16 188.861 888.16 188.776C888.16 188.179 887.995 187.693 887.664 187.32C887.344 186.936 886.885 186.744 886.288 186.744C885.723 186.744 885.227 186.909 884.8 187.24C884.373 187.571 884.043 188.003 883.808 188.536C883.573 189.059 883.456 189.613 883.456 190.2C883.456 190.819 883.616 191.309 883.936 191.672C884.256 192.035 884.715 192.216 885.312 192.216ZM906.831 184.264L904.095 193H902.975L900.559 185.672L898.143 193H897.007L894.271 184.264H895.407L897.583 191.864L900.031 184.264H901.151L903.567 191.88L905.727 184.264H906.831ZM907.846 188.616C907.846 187.72 908.022 186.936 908.374 186.264C908.737 185.581 909.233 185.059 909.862 184.696C910.502 184.323 911.222 184.136 912.022 184.136C912.854 184.136 913.569 184.328 914.166 184.712C914.774 185.096 915.211 185.587 915.478 186.184V184.264H916.598V193H915.478V191.064C915.201 191.661 914.758 192.157 914.15 192.552C913.553 192.936 912.838 193.128 912.006 193.128C911.217 193.128 910.502 192.941 909.862 192.568C909.233 192.195 908.737 191.667 908.374 190.984C908.022 190.301 907.846 189.512 907.846 188.616ZM915.478 188.632C915.478 187.928 915.334 187.309 915.046 186.776C914.758 186.243 914.363 185.832 913.862 185.544C913.371 185.256 912.827 185.112 912.23 185.112C911.611 185.112 911.057 185.251 910.566 185.528C910.075 185.805 909.686 186.211 909.398 186.744C909.121 187.267 908.982 187.891 908.982 188.616C908.982 189.331 909.121 189.96 909.398 190.504C909.686 191.037 910.075 191.448 910.566 191.736C911.057 192.013 911.611 192.152 912.23 192.152C912.827 192.152 913.371 192.008 913.862 191.72C914.363 191.432 914.758 191.021 915.046 190.488C915.334 189.955 915.478 189.336 915.478 188.632ZM920.275 185.816C920.52 185.272 920.894 184.851 921.395 184.552C921.907 184.253 922.531 184.104 923.267 184.104V185.272H922.963C922.152 185.272 921.502 185.491 921.011 185.928C920.52 186.365 920.275 187.096 920.275 188.12V193H919.155V184.264H920.275V185.816ZM924.44 188.616C924.44 187.72 924.621 186.936 924.984 186.264C925.347 185.581 925.843 185.059 926.472 184.696C927.112 184.323 927.832 184.136 928.632 184.136C929.4 184.136 930.093 184.323 930.712 184.696C931.331 185.069 931.784 185.555 932.072 186.152V181.16H933.192V193H932.072V191.048C931.805 191.656 931.368 192.157 930.76 192.552C930.152 192.936 929.437 193.128 928.616 193.128C927.816 193.128 927.096 192.941 926.456 192.568C925.827 192.195 925.331 191.667 924.968 190.984C924.616 190.301 924.44 189.512 924.44 188.616ZM932.072 188.632C932.072 187.928 931.928 187.309 931.64 186.776C931.352 186.243 930.957 185.832 930.456 185.544C929.965 185.256 929.421 185.112 928.824 185.112C928.205 185.112 927.651 185.251 927.16 185.528C926.669 185.805 926.28 186.211 925.992 186.744C925.715 187.267 925.576 187.891 925.576 188.616C925.576 189.331 925.715 189.96 925.992 190.504C926.28 191.037 926.669 191.448 927.16 191.736C927.651 192.013 928.205 192.152 928.824 192.152C929.421 192.152 929.965 192.008 930.456 191.72C930.957 191.432 931.352 191.021 931.64 190.488C931.928 189.955 932.072 189.336 932.072 188.632ZM938.853 191.912L941.797 184.264H942.981L939.477 193H938.213L934.709 184.264H935.909L938.853 191.912ZM945.059 182.616C944.835 182.616 944.643 182.536 944.483 182.376C944.323 182.216 944.243 182.019 944.243 181.784C944.243 181.549 944.323 181.357 944.483 181.208C944.643 181.048 944.835 180.968 945.059 180.968C945.283 180.968 945.475 181.048 945.635 181.208C945.795 181.357 945.875 181.549 945.875 181.784C945.875 182.019 945.795 182.216 945.635 182.376C945.475 182.536 945.283 182.616 945.059 182.616ZM945.619 184.264V193H944.499V184.264H945.619ZM951.163 193.128C950.16 193.128 949.339 192.899 948.699 192.44C948.07 191.971 947.718 191.336 947.643 190.536H948.795C948.848 191.027 949.078 191.427 949.483 191.736C949.899 192.035 950.454 192.184 951.147 192.184C951.755 192.184 952.23 192.04 952.571 191.752C952.923 191.464 953.099 191.107 953.099 190.68C953.099 190.381 953.003 190.136 952.811 189.944C952.619 189.752 952.374 189.603 952.075 189.496C951.787 189.379 951.392 189.256 950.891 189.128C950.24 188.957 949.712 188.787 949.307 188.616C948.902 188.445 948.555 188.195 948.267 187.864C947.99 187.523 947.851 187.069 947.851 186.504C947.851 186.077 947.979 185.683 948.235 185.32C948.491 184.957 948.854 184.669 949.323 184.456C949.792 184.243 950.326 184.136 950.923 184.136C951.862 184.136 952.619 184.376 953.195 184.856C953.771 185.325 954.08 185.976 954.123 186.808H953.003C952.971 186.296 952.768 185.885 952.395 185.576C952.032 185.256 951.531 185.096 950.891 185.096C950.326 185.096 949.867 185.229 949.515 185.496C949.163 185.763 948.987 186.093 948.987 186.488C948.987 186.829 949.088 187.112 949.291 187.336C949.504 187.549 949.766 187.72 950.075 187.848C950.384 187.965 950.8 188.099 951.323 188.248C951.952 188.419 952.454 188.584 952.827 188.744C953.2 188.904 953.52 189.139 953.787 189.448C954.054 189.757 954.192 190.168 954.203 190.68C954.203 191.149 954.075 191.571 953.819 191.944C953.563 192.307 953.206 192.595 952.747 192.808C952.288 193.021 951.76 193.128 951.163 193.128ZM963.879 184.264V193H962.759V191.464C962.503 192.008 962.109 192.424 961.575 192.712C961.042 193 960.445 193.144 959.783 193.144C958.738 193.144 957.885 192.824 957.223 192.184C956.562 191.533 956.231 190.595 956.231 189.368V184.264H957.335V189.24C957.335 190.189 957.57 190.915 958.039 191.416C958.519 191.917 959.17 192.168 959.991 192.168C960.834 192.168 961.506 191.901 962.007 191.368C962.509 190.835 962.759 190.051 962.759 189.016V184.264H963.879ZM965.924 188.616C965.924 187.72 966.1 186.936 966.452 186.264C966.815 185.581 967.311 185.059 967.94 184.696C968.58 184.323 969.3 184.136 970.1 184.136C970.932 184.136 971.647 184.328 972.244 184.712C972.852 185.096 973.29 185.587 973.556 186.184V184.264H974.676V193H973.556V191.064C973.279 191.661 972.836 192.157 972.228 192.552C971.631 192.936 970.916 193.128 970.084 193.128C969.295 193.128 968.58 192.941 967.94 192.568C967.311 192.195 966.815 191.667 966.452 190.984C966.1 190.301 965.924 189.512 965.924 188.616ZM973.556 188.632C973.556 187.928 973.412 187.309 973.124 186.776C972.836 186.243 972.442 185.832 971.94 185.544C971.45 185.256 970.906 185.112 970.308 185.112C969.69 185.112 969.135 185.251 968.644 185.528C968.154 185.805 967.764 186.211 967.476 186.744C967.199 187.267 967.06 187.891 967.06 188.616C967.06 189.331 967.199 189.96 967.476 190.504C967.764 191.037 968.154 191.448 968.644 191.736C969.135 192.013 969.69 192.152 970.308 192.152C970.906 192.152 971.45 192.008 971.94 191.72C972.442 191.432 972.836 191.021 973.124 190.488C973.412 189.955 973.556 189.336 973.556 188.632ZM978.353 181.16V193H977.233V181.16H978.353Z" fill="white"/>
<rect x="113" y="74" width="154.192" height="51.3974" rx="5" fill="#0D0D0D"/>
<rect x="82" y="141" width="135.256" height="51.3974" rx="5" fill="#FEFEFE"/>
</g>
<defs>
<clipPath id="clip0_706_402">
<rect width="1131" height="255" rx="10" fill="white"/>
</clipPath>
</defs>
</svg>
