<svg width="445" height="223" viewBox="0 0 445 223" fill="none" xmlns="http://www.w3.org/2000/svg">
<path d="M46.6113 92.8319C42.1549 94.5181 37.0964 95.3612 31.4355 95.3612C12.8874 95.3612 3.61328 86.3882 3.61328 68.4423C3.61328 51.4598 12.8874 42.9686 31.4355 42.9686C37.0964 42.9686 42.1549 43.8117 46.6113 45.4979V54.1698C42.1549 52.2427 37.3372 51.2792 32.1582 51.2792C19.7526 51.2792 13.5498 57.0002 13.5498 68.4423C13.5498 80.8479 19.7526 87.0507 32.1582 87.0507C37.3372 87.0507 42.1549 86.0871 46.6113 84.16V92.8319ZM63.7744 69.0204C63.7744 81.0406 69.11 87.0507 79.7812 87.0507C90.1875 87.0507 95.3906 81.0406 95.3906 69.0204C95.3906 57.1929 90.1875 51.2792 79.7812 51.2792C69.11 51.2792 63.7744 57.1929 63.7744 69.0204ZM53.8379 69.2372C53.8379 51.7248 62.4857 42.9686 79.7812 42.9686C96.8118 42.9686 105.327 51.7248 105.327 69.2372C105.327 86.6532 96.8118 95.3612 79.7812 95.3612C63.2565 95.3612 54.6087 86.6532 53.8379 69.2372ZM119.708 94.9999H109.88L131.812 43.33H142.11L164.513 94.9999H154.215L148.325 80.9081H131.162L134.45 72.5975H144.856L136.727 53.1942L119.708 94.9999ZM180.411 43.33V86.6893H200.935V94.9999H170.836V43.33H180.411ZM245.378 43.33V51.5682H219.507V64.576H244.149V73.1395H219.398V86.6893H245.884V94.9999H210.004V43.33H245.378ZM253.833 92.8319V84.16C259.012 86.0871 264.866 87.0507 271.394 87.0507C279.319 87.0507 283.281 84.4009 283.281 79.1014C283.281 75.2473 280.848 73.3202 275.982 73.3202H267.889C257.314 73.3202 252.026 68.5025 252.026 58.8671C252.026 48.2681 259.554 42.9686 274.609 42.9686C280.391 42.9686 285.871 43.8117 291.05 45.4979V54.1698C285.871 52.2427 280.391 51.2792 274.609 51.2792C265.938 51.2792 261.602 53.8085 261.602 58.8671C261.602 62.7212 263.697 64.6483 267.889 64.6483H275.982C287.232 64.6483 292.856 69.466 292.856 79.1014C292.856 89.9413 285.702 95.3612 271.394 95.3612C264.866 95.3612 259.012 94.5181 253.833 92.8319ZM342.178 92.8319C337.721 94.5181 332.663 95.3612 327.002 95.3612C308.454 95.3612 299.18 86.3882 299.18 68.4423C299.18 51.4598 308.454 42.9686 327.002 42.9686C332.663 42.9686 337.721 43.8117 342.178 45.4979V54.1698C337.721 52.2427 332.904 51.2792 327.725 51.2792C315.319 51.2792 309.116 57.0002 309.116 68.4423C309.116 80.8479 315.319 87.0507 327.725 87.0507C332.904 87.0507 337.721 86.0871 342.178 84.16V92.8319ZM386.585 43.33V51.5682H360.714V64.576H385.356V73.1395H360.605V86.6893H387.091V94.9999H351.211V43.33H386.585ZM416.178 86.6893C426.897 86.6893 432.257 80.3781 432.257 67.7557C432.257 57.0122 426.897 51.6405 416.178 51.6405H405.519V86.6893H416.178ZM395.943 94.9999V43.33H416.178C433.281 43.33 441.832 51.4719 441.832 67.7557C441.832 85.9185 433.281 94.9999 416.178 94.9999H395.943Z" fill="#EEFAFF"/>
<path d="M47.3486 110.33V118.568H22.9229V131.576H46.1201V140.14H22.8145V162H13.4199V110.33H47.3486ZM65.0985 161.928V110.33H88.5848C99.1356 110.33 104.411 114.943 104.411 124.169C104.411 130.408 100.304 135.575 92.0897 139.67L108.458 162H96.3895L80.6718 139.489V135.117C89.8254 133.551 94.4022 129.998 94.4022 124.458C94.4022 120.652 92.2583 118.749 87.9706 118.749H74.8544V161.928H65.0985ZM158.005 110.33V118.568H132.134V131.576H156.776V140.14H132.025V153.689H158.511V162H122.631V110.33H158.005ZM212.357 110.33V118.568H186.486V131.576H211.129V140.14H186.378V153.689H212.863V162H176.983V110.33H212.357ZM262.527 162H252.699L274.631 110.33H284.929L307.331 162H297.034L291.144 147.908H273.981L277.269 139.598H287.675L279.545 120.194L262.527 162ZM323.275 162V110.33H346.4C356.95 110.33 362.226 115.184 362.226 124.892C362.226 135.418 355.011 141.79 340.582 144.006L339.209 135.479C347.881 133.913 352.217 130.48 352.217 125.181C352.217 120.893 350.073 118.749 345.785 118.749H332.85V162H323.275ZM387.78 110.33V162H378.205V110.33H387.78ZM407.373 160.193V152.244C411.589 153.93 416.454 154.773 421.971 154.773C426.09 154.773 428.149 153.449 428.149 150.799C428.149 148.27 426.764 147.005 423.994 147.005H417.129C409.421 147.005 405.566 143.211 405.566 135.623C405.566 127.674 411.191 123.699 422.44 123.699C427.21 123.699 431.703 124.422 435.918 125.867V133.816C431.703 132.13 427.126 131.287 422.188 131.287C417.008 131.287 414.419 132.612 414.419 135.262C414.419 137.791 415.925 139.056 418.936 139.056H425.078C433.509 139.056 437.725 142.85 437.725 150.438C437.725 158.387 432.353 162.361 421.609 162.361C416.334 162.361 411.589 161.639 407.373 160.193Z" fill="#EEFAFF"/>
<path opacity="0.6" d="M8 94H445V151H8V94Z" fill="url(#paint0_linear_733_911)"/>
<path d="M18.802 213.21H13.33L12.322 216H10.594L15.13 203.526H17.02L21.538 216H19.81L18.802 213.21ZM18.334 211.878L16.066 205.542L13.798 211.878H18.334ZM30.2217 211.05C30.2217 210.03 30.4257 209.142 30.8337 208.386C31.2417 207.618 31.8057 207.024 32.5257 206.604C33.2577 206.184 34.0917 205.974 35.0277 205.974C36.2397 205.974 37.2357 206.268 38.0157 206.856C38.8077 207.444 39.3297 208.26 39.5817 209.304H37.8177C37.6497 208.704 37.3197 208.23 36.8277 207.882C36.3477 207.534 35.7477 207.36 35.0277 207.36C34.0917 207.36 33.3357 207.684 32.7597 208.332C32.1837 208.968 31.8957 209.874 31.8957 211.05C31.8957 212.238 32.1837 213.156 32.7597 213.804C33.3357 214.452 34.0917 214.776 35.0277 214.776C35.7477 214.776 36.3477 214.608 36.8277 214.272C37.3077 213.936 37.6377 213.456 37.8177 212.832H39.5817C39.3177 213.84 38.7897 214.65 37.9977 215.262C37.2057 215.862 36.2157 216.162 35.0277 216.162C34.0917 216.162 33.2577 215.952 32.5257 215.532C31.8057 215.112 31.2417 214.518 30.8337 213.75C30.4257 212.982 30.2217 212.082 30.2217 211.05ZM47.3293 216.162C46.4053 216.162 45.5653 215.952 44.8093 215.532C44.0653 215.112 43.4773 214.518 43.0453 213.75C42.6253 212.97 42.4153 212.07 42.4153 211.05C42.4153 210.042 42.6313 209.154 43.0633 208.386C43.5073 207.606 44.1073 207.012 44.8633 206.604C45.6193 206.184 46.4653 205.974 47.4013 205.974C48.3373 205.974 49.1833 206.184 49.9393 206.604C50.6953 207.012 51.2893 207.6 51.7213 208.368C52.1653 209.136 52.3873 210.03 52.3873 211.05C52.3873 212.07 52.1593 212.97 51.7033 213.75C51.2593 214.518 50.6533 215.112 49.8853 215.532C49.1173 215.952 48.2653 216.162 47.3293 216.162ZM47.3293 214.722C47.9173 214.722 48.4693 214.584 48.9853 214.308C49.5013 214.032 49.9153 213.618 50.2273 213.066C50.5513 212.514 50.7133 211.842 50.7133 211.05C50.7133 210.258 50.5573 209.586 50.2453 209.034C49.9333 208.482 49.5253 208.074 49.0213 207.81C48.5173 207.534 47.9713 207.396 47.3833 207.396C46.7833 207.396 46.2313 207.534 45.7273 207.81C45.2353 208.074 44.8393 208.482 44.5393 209.034C44.2393 209.586 44.0893 210.258 44.0893 211.05C44.0893 211.854 44.2333 212.532 44.5213 213.084C44.8213 213.636 45.2173 214.05 45.7093 214.326C46.2013 214.59 46.7413 214.722 47.3293 214.722ZM55.189 211.032C55.189 210.024 55.393 209.142 55.801 208.386C56.209 207.618 56.767 207.024 57.475 206.604C58.195 206.184 58.993 205.974 59.869 205.974C60.733 205.974 61.483 206.16 62.119 206.532C62.755 206.904 63.229 207.372 63.541 207.936V206.136H65.197V216H63.541V214.164C63.217 214.74 62.731 215.22 62.083 215.604C61.447 215.976 60.703 216.162 59.851 216.162C58.975 216.162 58.183 215.946 57.475 215.514C56.767 215.082 56.209 214.476 55.801 213.696C55.393 212.916 55.189 212.028 55.189 211.032ZM63.541 211.05C63.541 210.306 63.391 209.658 63.091 209.106C62.791 208.554 62.383 208.134 61.867 207.846C61.363 207.546 60.805 207.396 60.193 207.396C59.581 207.396 59.023 207.54 58.519 207.828C58.015 208.116 57.613 208.536 57.313 209.088C57.013 209.64 56.863 210.288 56.863 211.032C56.863 211.788 57.013 212.448 57.313 213.012C57.613 213.564 58.015 213.99 58.519 214.29C59.023 214.578 59.581 214.722 60.193 214.722C60.805 214.722 61.363 214.578 61.867 214.29C62.383 213.99 62.791 213.564 63.091 213.012C63.391 212.448 63.541 211.794 63.541 211.05ZM70.8631 202.68V216H69.2251V202.68H70.8631ZM83.9148 210.69C83.9148 211.002 83.8968 211.332 83.8608 211.68H75.9768C76.0368 212.652 76.3668 213.414 76.9668 213.966C77.5788 214.506 78.3168 214.776 79.1808 214.776C79.8888 214.776 80.4768 214.614 80.9448 214.29C81.4248 213.954 81.7608 213.51 81.9528 212.958H83.7168C83.4528 213.906 82.9248 214.68 82.1328 215.28C81.3408 215.868 80.3568 216.162 79.1808 216.162C78.2448 216.162 77.4048 215.952 76.6608 215.532C75.9288 215.112 75.3528 214.518 74.9328 213.75C74.5128 212.97 74.3028 212.07 74.3028 211.05C74.3028 210.03 74.5068 209.136 74.9148 208.368C75.3228 207.6 75.8928 207.012 76.6248 206.604C77.3688 206.184 78.2208 205.974 79.1808 205.974C80.1168 205.974 80.9448 206.178 81.6648 206.586C82.3848 206.994 82.9368 207.558 83.3208 208.278C83.7168 208.986 83.9148 209.79 83.9148 210.69ZM82.2228 210.348C82.2228 209.724 82.0848 209.19 81.8088 208.746C81.5328 208.29 81.1548 207.948 80.6748 207.72C80.2068 207.48 79.6848 207.36 79.1088 207.36C78.2808 207.36 77.5728 207.624 76.9848 208.152C76.4088 208.68 76.0788 209.412 75.9948 210.348H82.2228ZM90.8289 216.162C90.0729 216.162 89.3949 216.036 88.7949 215.784C88.1949 215.52 87.7209 215.16 87.3729 214.704C87.0249 214.236 86.8329 213.702 86.7969 213.102H88.4889C88.5369 213.594 88.7649 213.996 89.1729 214.308C89.5929 214.62 90.1389 214.776 90.8109 214.776C91.4349 214.776 91.9269 214.638 92.2869 214.362C92.6469 214.086 92.8269 213.738 92.8269 213.318C92.8269 212.886 92.6349 212.568 92.2509 212.364C91.8669 212.148 91.2729 211.938 90.4689 211.734C89.7369 211.542 89.1369 211.35 88.6689 211.158C88.2129 210.954 87.8169 210.66 87.4809 210.276C87.1569 209.88 86.9949 209.364 86.9949 208.728C86.9949 208.224 87.1449 207.762 87.4449 207.342C87.7449 206.922 88.1709 206.592 88.7229 206.352C89.2749 206.1 89.9049 205.974 90.6129 205.974C91.7049 205.974 92.5869 206.25 93.2589 206.802C93.9309 207.354 94.2909 208.11 94.3389 209.07H92.7009C92.6649 208.554 92.4549 208.14 92.0709 207.828C91.6989 207.516 91.1949 207.36 90.5589 207.36C89.9709 207.36 89.5029 207.486 89.1549 207.738C88.8069 207.99 88.6329 208.32 88.6329 208.728C88.6329 209.052 88.7349 209.322 88.9389 209.538C89.1549 209.742 89.4189 209.91 89.7309 210.042C90.0549 210.162 90.4989 210.3 91.0629 210.456C91.7709 210.648 92.3469 210.84 92.7909 211.032C93.2349 211.212 93.6129 211.488 93.9249 211.86C94.2489 212.232 94.4169 212.718 94.4289 213.318C94.4289 213.858 94.2789 214.344 93.9789 214.776C93.6789 215.208 93.2529 215.55 92.7009 215.802C92.1609 216.042 91.5369 216.162 90.8289 216.162ZM97.3892 211.05C97.3892 210.03 97.5932 209.142 98.0012 208.386C98.4092 207.618 98.9732 207.024 99.6932 206.604C100.425 206.184 101.259 205.974 102.195 205.974C103.407 205.974 104.403 206.268 105.183 206.856C105.975 207.444 106.497 208.26 106.749 209.304H104.985C104.817 208.704 104.487 208.23 103.995 207.882C103.515 207.534 102.915 207.36 102.195 207.36C101.259 207.36 100.503 207.684 99.9272 208.332C99.3512 208.968 99.0632 209.874 99.0632 211.05C99.0632 212.238 99.3512 213.156 99.9272 213.804C100.503 214.452 101.259 214.776 102.195 214.776C102.915 214.776 103.515 214.608 103.995 214.272C104.475 213.936 104.805 213.456 104.985 212.832H106.749C106.485 213.84 105.957 214.65 105.165 215.262C104.373 215.862 103.383 216.162 102.195 216.162C101.259 216.162 100.425 215.952 99.6932 215.532C98.9732 215.112 98.4092 214.518 98.0012 213.75C97.5932 212.982 97.3892 212.082 97.3892 211.05ZM119.195 210.69C119.195 211.002 119.177 211.332 119.141 211.68H111.257C111.317 212.652 111.647 213.414 112.247 213.966C112.859 214.506 113.597 214.776 114.461 214.776C115.169 214.776 115.757 214.614 116.225 214.29C116.705 213.954 117.041 213.51 117.233 212.958H118.997C118.733 213.906 118.205 214.68 117.413 215.28C116.621 215.868 115.637 216.162 114.461 216.162C113.525 216.162 112.685 215.952 111.941 215.532C111.209 215.112 110.633 214.518 110.213 213.75C109.793 212.97 109.583 212.07 109.583 211.05C109.583 210.03 109.787 209.136 110.195 208.368C110.603 207.6 111.173 207.012 111.905 206.604C112.649 206.184 113.501 205.974 114.461 205.974C115.397 205.974 116.225 206.178 116.945 206.586C117.665 206.994 118.217 207.558 118.601 208.278C118.997 208.986 119.195 209.79 119.195 210.69ZM117.503 210.348C117.503 209.724 117.365 209.19 117.089 208.746C116.813 208.29 116.435 207.948 115.955 207.72C115.487 207.48 114.965 207.36 114.389 207.36C113.561 207.36 112.853 207.624 112.265 208.152C111.689 208.68 111.359 209.412 111.275 210.348H117.503ZM122.005 211.032C122.005 210.024 122.209 209.142 122.617 208.386C123.025 207.618 123.583 207.024 124.291 206.604C125.011 206.184 125.815 205.974 126.703 205.974C127.471 205.974 128.185 206.154 128.845 206.514C129.505 206.862 130.009 207.324 130.357 207.9V202.68H132.013V216H130.357V214.146C130.033 214.734 129.553 215.22 128.917 215.604C128.281 215.976 127.537 216.162 126.685 216.162C125.809 216.162 125.011 215.946 124.291 215.514C123.583 215.082 123.025 214.476 122.617 213.696C122.209 212.916 122.005 212.028 122.005 211.032ZM130.357 211.05C130.357 210.306 130.207 209.658 129.907 209.106C129.607 208.554 129.199 208.134 128.683 207.846C128.179 207.546 127.621 207.396 127.009 207.396C126.397 207.396 125.839 207.54 125.335 207.828C124.831 208.116 124.429 208.536 124.129 209.088C123.829 209.64 123.679 210.288 123.679 211.032C123.679 211.788 123.829 212.448 124.129 213.012C124.429 213.564 124.831 213.99 125.335 214.29C125.839 214.578 126.397 214.722 127.009 214.722C127.621 214.722 128.179 214.578 128.683 214.29C129.199 213.99 129.607 213.564 129.907 213.012C130.207 212.448 130.357 211.794 130.357 211.05ZM143.738 202.68V216H142.1V202.68H143.738ZM148.635 204.534C148.323 204.534 148.059 204.426 147.843 204.21C147.627 203.994 147.519 203.73 147.519 203.418C147.519 203.106 147.627 202.842 147.843 202.626C148.059 202.41 148.323 202.302 148.635 202.302C148.935 202.302 149.187 202.41 149.391 202.626C149.607 202.842 149.715 203.106 149.715 203.418C149.715 203.73 149.607 203.994 149.391 204.21C149.187 204.426 148.935 204.534 148.635 204.534ZM149.427 206.136V216H147.789V206.136H149.427ZM156.971 216.162C156.215 216.162 155.537 216.036 154.937 215.784C154.337 215.52 153.863 215.16 153.515 214.704C153.167 214.236 152.975 213.702 152.939 213.102H154.631C154.679 213.594 154.907 213.996 155.315 214.308C155.735 214.62 156.281 214.776 156.953 214.776C157.577 214.776 158.069 214.638 158.429 214.362C158.789 214.086 158.969 213.738 158.969 213.318C158.969 212.886 158.777 212.568 158.393 212.364C158.009 212.148 157.415 211.938 156.611 211.734C155.879 211.542 155.279 211.35 154.811 211.158C154.355 210.954 153.959 210.66 153.623 210.276C153.299 209.88 153.137 209.364 153.137 208.728C153.137 208.224 153.287 207.762 153.587 207.342C153.887 206.922 154.313 206.592 154.865 206.352C155.417 206.1 156.047 205.974 156.755 205.974C157.847 205.974 158.729 206.25 159.401 206.802C160.073 207.354 160.433 208.11 160.481 209.07H158.843C158.807 208.554 158.597 208.14 158.213 207.828C157.841 207.516 157.337 207.36 156.701 207.36C156.113 207.36 155.645 207.486 155.297 207.738C154.949 207.99 154.775 208.32 154.775 208.728C154.775 209.052 154.877 209.322 155.081 209.538C155.297 209.742 155.561 209.91 155.873 210.042C156.197 210.162 156.641 210.3 157.205 210.456C157.913 210.648 158.489 210.84 158.933 211.032C159.377 211.212 159.755 211.488 160.067 211.86C160.391 212.232 160.559 212.718 160.571 213.318C160.571 213.858 160.421 214.344 160.121 214.776C159.821 215.208 159.395 215.55 158.843 215.802C158.303 216.042 157.679 216.162 156.971 216.162ZM166.141 207.486V213.3C166.141 213.78 166.243 214.122 166.447 214.326C166.651 214.518 167.005 214.614 167.509 214.614H168.715V216H167.239C166.327 216 165.643 215.79 165.187 215.37C164.731 214.95 164.503 214.26 164.503 213.3V207.486H163.225V206.136H164.503V203.652H166.141V206.136H168.715V207.486H166.141ZM182.321 216.162C181.397 216.162 180.557 215.952 179.801 215.532C179.057 215.112 178.469 214.518 178.037 213.75C177.617 212.97 177.407 212.07 177.407 211.05C177.407 210.042 177.623 209.154 178.055 208.386C178.499 207.606 179.099 207.012 179.855 206.604C180.611 206.184 181.457 205.974 182.393 205.974C183.329 205.974 184.175 206.184 184.931 206.604C185.687 207.012 186.281 207.6 186.713 208.368C187.157 209.136 187.379 210.03 187.379 211.05C187.379 212.07 187.151 212.97 186.695 213.75C186.251 214.518 185.645 215.112 184.877 215.532C184.109 215.952 183.257 216.162 182.321 216.162ZM182.321 214.722C182.909 214.722 183.461 214.584 183.977 214.308C184.493 214.032 184.907 213.618 185.219 213.066C185.543 212.514 185.705 211.842 185.705 211.05C185.705 210.258 185.549 209.586 185.237 209.034C184.925 208.482 184.517 208.074 184.013 207.81C183.509 207.534 182.963 207.396 182.375 207.396C181.775 207.396 181.223 207.534 180.719 207.81C180.227 208.074 179.831 208.482 179.531 209.034C179.231 209.586 179.081 210.258 179.081 211.05C179.081 211.854 179.225 212.532 179.513 213.084C179.813 213.636 180.209 214.05 180.701 214.326C181.193 214.59 181.733 214.722 182.321 214.722ZM194.807 207.486H192.737V216H191.099V207.486H189.821V206.136H191.099V205.434C191.099 204.33 191.381 203.526 191.945 203.022C192.521 202.506 193.439 202.248 194.699 202.248V203.616C193.979 203.616 193.469 203.76 193.169 204.048C192.881 204.324 192.737 204.786 192.737 205.434V206.136H194.807V207.486ZM208.049 207.486H205.979V216H204.341V207.486H203.063V206.136H204.341V205.434C204.341 204.33 204.623 203.526 205.187 203.022C205.763 202.506 206.681 202.248 207.941 202.248V203.616C207.221 203.616 206.711 203.76 206.411 204.048C206.123 204.324 205.979 204.786 205.979 205.434V206.136H208.049V207.486ZM212.857 207.738C213.145 207.174 213.553 206.736 214.081 206.424C214.621 206.112 215.275 205.956 216.043 205.956V207.648H215.611C213.775 207.648 212.857 208.644 212.857 210.636V216H211.219V206.136H212.857V207.738ZM228.194 210.69C228.194 211.002 228.176 211.332 228.14 211.68H220.256C220.316 212.652 220.646 213.414 221.246 213.966C221.858 214.506 222.596 214.776 223.46 214.776C224.168 214.776 224.756 214.614 225.224 214.29C225.704 213.954 226.04 213.51 226.232 212.958H227.996C227.732 213.906 227.204 214.68 226.412 215.28C225.62 215.868 224.636 216.162 223.46 216.162C222.524 216.162 221.684 215.952 220.94 215.532C220.208 215.112 219.632 214.518 219.212 213.75C218.792 212.97 218.582 212.07 218.582 211.05C218.582 210.03 218.786 209.136 219.194 208.368C219.602 207.6 220.172 207.012 220.904 206.604C221.648 206.184 222.5 205.974 223.46 205.974C224.396 205.974 225.224 206.178 225.944 206.586C226.664 206.994 227.216 207.558 227.6 208.278C227.996 208.986 228.194 209.79 228.194 210.69ZM226.502 210.348C226.502 209.724 226.364 209.19 226.088 208.746C225.812 208.29 225.434 207.948 224.954 207.72C224.486 207.48 223.964 207.36 223.388 207.36C222.56 207.36 221.852 207.624 221.264 208.152C220.688 208.68 220.358 209.412 220.274 210.348H226.502ZM240.616 210.69C240.616 211.002 240.598 211.332 240.562 211.68H232.678C232.738 212.652 233.068 213.414 233.668 213.966C234.28 214.506 235.018 214.776 235.882 214.776C236.59 214.776 237.178 214.614 237.646 214.29C238.126 213.954 238.462 213.51 238.654 212.958H240.418C240.154 213.906 239.626 214.68 238.834 215.28C238.042 215.868 237.058 216.162 235.882 216.162C234.946 216.162 234.106 215.952 233.362 215.532C232.63 215.112 232.054 214.518 231.634 213.75C231.214 212.97 231.004 212.07 231.004 211.05C231.004 210.03 231.208 209.136 231.616 208.368C232.024 207.6 232.594 207.012 233.326 206.604C234.07 206.184 234.922 205.974 235.882 205.974C236.818 205.974 237.646 206.178 238.366 206.586C239.086 206.994 239.638 207.558 240.022 208.278C240.418 208.986 240.616 209.79 240.616 210.69ZM238.924 210.348C238.924 209.724 238.786 209.19 238.51 208.746C238.234 208.29 237.856 207.948 237.376 207.72C236.908 207.48 236.386 207.36 235.81 207.36C234.982 207.36 234.274 207.624 233.686 208.152C233.11 208.68 232.78 209.412 232.696 210.348H238.924ZM257.513 213.21H252.041L251.033 216H249.305L253.841 203.526H255.731L260.249 216H258.521L257.513 213.21ZM257.045 211.878L254.777 205.542L252.509 211.878H257.045ZM271.874 207.126C271.874 208.17 271.514 209.04 270.794 209.736C270.086 210.42 269 210.762 267.536 210.762H265.124V216H263.486V203.454H267.536C268.952 203.454 270.026 203.796 270.758 204.48C271.502 205.164 271.874 206.046 271.874 207.126ZM267.536 209.412C268.448 209.412 269.12 209.214 269.552 208.818C269.984 208.422 270.2 207.858 270.2 207.126C270.2 205.578 269.312 204.804 267.536 204.804H265.124V209.412H267.536ZM276.808 203.454V216H275.17V203.454H276.808ZM284.351 216.162C283.595 216.162 282.917 216.036 282.317 215.784C281.717 215.52 281.243 215.16 280.895 214.704C280.547 214.236 280.355 213.702 280.319 213.102H282.011C282.059 213.594 282.287 213.996 282.695 214.308C283.115 214.62 283.661 214.776 284.333 214.776C284.957 214.776 285.449 214.638 285.809 214.362C286.169 214.086 286.349 213.738 286.349 213.318C286.349 212.886 286.157 212.568 285.773 212.364C285.389 212.148 284.795 211.938 283.991 211.734C283.259 211.542 282.659 211.35 282.191 211.158C281.735 210.954 281.339 210.66 281.003 210.276C280.679 209.88 280.517 209.364 280.517 208.728C280.517 208.224 280.667 207.762 280.967 207.342C281.267 206.922 281.693 206.592 282.245 206.352C282.797 206.1 283.427 205.974 284.135 205.974C285.227 205.974 286.109 206.25 286.781 206.802C287.453 207.354 287.813 208.11 287.861 209.07H286.223C286.187 208.554 285.977 208.14 285.593 207.828C285.221 207.516 284.717 207.36 284.081 207.36C283.493 207.36 283.025 207.486 282.677 207.738C282.329 207.99 282.155 208.32 282.155 208.728C282.155 209.052 282.257 209.322 282.461 209.538C282.677 209.742 282.941 209.91 283.253 210.042C283.577 210.162 284.021 210.3 284.585 210.456C285.293 210.648 285.869 210.84 286.313 211.032C286.757 211.212 287.135 211.488 287.447 211.86C287.771 212.232 287.939 212.718 287.951 213.318C287.951 213.858 287.801 214.344 287.501 214.776C287.201 215.208 286.775 215.55 286.223 215.802C285.683 216.042 285.059 216.162 284.351 216.162ZM301.596 207.486H299.526V216H297.888V207.486H296.61V206.136H297.888V205.434C297.888 204.33 298.17 203.526 298.734 203.022C299.31 202.506 300.228 202.248 301.488 202.248V203.616C300.768 203.616 300.258 203.76 299.958 204.048C299.67 204.324 299.526 204.786 299.526 205.434V206.136H301.596V207.486ZM309.068 216.162C308.144 216.162 307.304 215.952 306.548 215.532C305.804 215.112 305.216 214.518 304.784 213.75C304.364 212.97 304.154 212.07 304.154 211.05C304.154 210.042 304.37 209.154 304.802 208.386C305.246 207.606 305.846 207.012 306.602 206.604C307.358 206.184 308.204 205.974 309.14 205.974C310.076 205.974 310.922 206.184 311.678 206.604C312.434 207.012 313.028 207.6 313.46 208.368C313.904 209.136 314.126 210.03 314.126 211.05C314.126 212.07 313.898 212.97 313.442 213.75C312.998 214.518 312.392 215.112 311.624 215.532C310.856 215.952 310.004 216.162 309.068 216.162ZM309.068 214.722C309.656 214.722 310.208 214.584 310.724 214.308C311.24 214.032 311.654 213.618 311.966 213.066C312.29 212.514 312.452 211.842 312.452 211.05C312.452 210.258 312.296 209.586 311.984 209.034C311.672 208.482 311.264 208.074 310.76 207.81C310.256 207.534 309.71 207.396 309.122 207.396C308.522 207.396 307.97 207.534 307.466 207.81C306.974 208.074 306.578 208.482 306.278 209.034C305.978 209.586 305.828 210.258 305.828 211.05C305.828 211.854 305.972 212.532 306.26 213.084C306.56 213.636 306.956 214.05 307.448 214.326C307.94 214.59 308.48 214.722 309.068 214.722ZM319.178 207.738C319.466 207.174 319.874 206.736 320.402 206.424C320.942 206.112 321.596 205.956 322.364 205.956V207.648H321.932C320.096 207.648 319.178 208.644 319.178 210.636V216H317.54V206.136H319.178V207.738ZM340.574 210.69C340.574 211.002 340.556 211.332 340.52 211.68H332.636C332.696 212.652 333.026 213.414 333.626 213.966C334.238 214.506 334.976 214.776 335.84 214.776C336.548 214.776 337.136 214.614 337.604 214.29C338.084 213.954 338.42 213.51 338.612 212.958H340.376C340.112 213.906 339.584 214.68 338.792 215.28C338 215.868 337.016 216.162 335.84 216.162C334.904 216.162 334.064 215.952 333.32 215.532C332.588 215.112 332.012 214.518 331.592 213.75C331.172 212.97 330.962 212.07 330.962 211.05C330.962 210.03 331.166 209.136 331.574 208.368C331.982 207.6 332.552 207.012 333.284 206.604C334.028 206.184 334.88 205.974 335.84 205.974C336.776 205.974 337.604 206.178 338.324 206.586C339.044 206.994 339.596 207.558 339.98 208.278C340.376 208.986 340.574 209.79 340.574 210.69ZM338.882 210.348C338.882 209.724 338.744 209.19 338.468 208.746C338.192 208.29 337.814 207.948 337.334 207.72C336.866 207.48 336.344 207.36 335.768 207.36C334.94 207.36 334.232 207.624 333.644 208.152C333.068 208.68 332.738 209.412 332.654 210.348H338.882ZM347.668 214.488L350.728 206.136H352.474L348.604 216H346.696L342.826 206.136H344.59L347.668 214.488ZM364.346 210.69C364.346 211.002 364.328 211.332 364.292 211.68H356.408C356.468 212.652 356.798 213.414 357.398 213.966C358.01 214.506 358.748 214.776 359.612 214.776C360.32 214.776 360.908 214.614 361.376 214.29C361.856 213.954 362.192 213.51 362.384 212.958H364.148C363.884 213.906 363.356 214.68 362.564 215.28C361.772 215.868 360.788 216.162 359.612 216.162C358.676 216.162 357.836 215.952 357.092 215.532C356.36 215.112 355.784 214.518 355.364 213.75C354.944 212.97 354.734 212.07 354.734 211.05C354.734 210.03 354.938 209.136 355.346 208.368C355.754 207.6 356.324 207.012 357.056 206.604C357.8 206.184 358.652 205.974 359.612 205.974C360.548 205.974 361.376 206.178 362.096 206.586C362.816 206.994 363.368 207.558 363.752 208.278C364.148 208.986 364.346 209.79 364.346 210.69ZM362.654 210.348C362.654 209.724 362.516 209.19 362.24 208.746C361.964 208.29 361.586 207.948 361.106 207.72C360.638 207.48 360.116 207.36 359.54 207.36C358.712 207.36 358.004 207.624 357.416 208.152C356.84 208.68 356.51 209.412 356.426 210.348H362.654ZM369.406 207.738C369.694 207.174 370.102 206.736 370.63 206.424C371.17 206.112 371.824 205.956 372.592 205.956V207.648H372.16C370.324 207.648 369.406 208.644 369.406 210.636V216H367.768V206.136H369.406V207.738ZM384.239 206.136L378.299 220.644H376.607L378.551 215.892L374.573 206.136H376.391L379.487 214.128L382.547 206.136H384.239ZM391.447 216.162C390.523 216.162 389.683 215.952 388.927 215.532C388.183 215.112 387.595 214.518 387.163 213.75C386.743 212.97 386.533 212.07 386.533 211.05C386.533 210.042 386.749 209.154 387.181 208.386C387.625 207.606 388.225 207.012 388.981 206.604C389.737 206.184 390.583 205.974 391.519 205.974C392.455 205.974 393.301 206.184 394.057 206.604C394.813 207.012 395.407 207.6 395.839 208.368C396.283 209.136 396.505 210.03 396.505 211.05C396.505 212.07 396.277 212.97 395.821 213.75C395.377 214.518 394.771 215.112 394.003 215.532C393.235 215.952 392.383 216.162 391.447 216.162ZM391.447 214.722C392.035 214.722 392.587 214.584 393.103 214.308C393.619 214.032 394.033 213.618 394.345 213.066C394.669 212.514 394.831 211.842 394.831 211.05C394.831 210.258 394.675 209.586 394.363 209.034C394.051 208.482 393.643 208.074 393.139 207.81C392.635 207.534 392.089 207.396 391.501 207.396C390.901 207.396 390.349 207.534 389.845 207.81C389.353 208.074 388.957 208.482 388.657 209.034C388.357 209.586 388.207 210.258 388.207 211.05C388.207 211.854 388.351 212.532 388.639 213.084C388.939 213.636 389.335 214.05 389.827 214.326C390.319 214.59 390.859 214.722 391.447 214.722ZM404.725 205.956C405.925 205.956 406.897 206.322 407.641 207.054C408.385 207.774 408.757 208.818 408.757 210.186V216H407.137V210.42C407.137 209.436 406.891 208.686 406.399 208.17C405.907 207.642 405.235 207.378 404.383 207.378C403.519 207.378 402.829 207.648 402.313 208.188C401.809 208.728 401.557 209.514 401.557 210.546V216H399.919V206.136H401.557V207.54C401.881 207.036 402.319 206.646 402.871 206.37C403.435 206.094 404.053 205.956 404.725 205.956ZM421.692 210.69C421.692 211.002 421.674 211.332 421.638 211.68H413.754C413.814 212.652 414.144 213.414 414.744 213.966C415.356 214.506 416.094 214.776 416.958 214.776C417.666 214.776 418.254 214.614 418.722 214.29C419.202 213.954 419.538 213.51 419.73 212.958H421.494C421.23 213.906 420.702 214.68 419.91 215.28C419.118 215.868 418.134 216.162 416.958 216.162C416.022 216.162 415.182 215.952 414.438 215.532C413.706 215.112 413.13 214.518 412.71 213.75C412.29 212.97 412.08 212.07 412.08 211.05C412.08 210.03 412.284 209.136 412.692 208.368C413.1 207.6 413.67 207.012 414.402 206.604C415.146 206.184 415.998 205.974 416.958 205.974C417.894 205.974 418.722 206.178 419.442 206.586C420.162 206.994 420.714 207.558 421.098 208.278C421.494 208.986 421.692 209.79 421.692 210.69ZM420 210.348C420 209.724 419.862 209.19 419.586 208.746C419.31 208.29 418.932 207.948 418.452 207.72C417.984 207.48 417.462 207.36 416.886 207.36C416.058 207.36 415.35 207.624 414.762 208.152C414.186 208.68 413.856 209.412 413.772 210.348H420ZM425.637 216.108C425.325 216.108 425.061 216 424.845 215.784C424.629 215.568 424.521 215.304 424.521 214.992C424.521 214.68 424.629 214.416 424.845 214.2C425.061 213.984 425.325 213.876 425.637 213.876C425.937 213.876 426.189 213.984 426.393 214.2C426.609 214.416 426.717 214.68 426.717 214.992C426.717 215.304 426.609 215.568 426.393 215.784C426.189 216 425.937 216.108 425.637 216.108Z" fill="#EEFAFF"/>
<path d="M22.432 10.032C22.432 10.992 22.1173 11.7653 21.488 12.352C20.8587 12.9387 19.9147 13.232 18.656 13.232H16.4V18H15.28L15.28 6.816L18.656 6.816C19.904 6.816 20.8427 7.10933 21.472 7.696C22.112 8.28267 22.432 9.06133 22.432 10.032ZM18.656 12.272C20.4053 12.272 21.28 11.5253 21.28 10.032C21.28 9.28533 21.072 8.72 20.656 8.336C20.24 7.952 19.5733 7.76 18.656 7.76L16.4 7.76V12.272H18.656ZM30.4553 18.112C29.4206 18.112 28.4819 17.872 27.6393 17.392C26.7966 16.9013 26.1299 16.224 25.6392 15.36C25.1592 14.4853 24.9192 13.4987 24.9192 12.4C24.9192 11.3013 25.1592 10.32 25.6392 9.456C26.1299 8.58133 26.7966 7.904 27.6393 7.424C28.4819 6.93333 29.4206 6.688 30.4553 6.688C31.5006 6.688 32.4446 6.93333 33.2873 7.424C34.1299 7.904 34.7913 8.58133 35.2713 9.456C35.7513 10.32 35.9913 11.3013 35.9913 12.4C35.9913 13.4987 35.7513 14.4853 35.2713 15.36C34.7913 16.224 34.1299 16.9013 33.2873 17.392C32.4446 17.872 31.5006 18.112 30.4553 18.112ZM30.4553 17.136C31.2873 17.136 32.0339 16.944 32.6953 16.56C33.3566 16.176 33.8793 15.6267 34.2633 14.912C34.6473 14.1867 34.8393 13.3493 34.8393 12.4C34.8393 11.4507 34.6473 10.6187 34.2633 9.904C33.8793 9.18933 33.3566 8.64 32.6953 8.256C32.0339 7.872 31.2873 7.68 30.4553 7.68C29.6233 7.68 28.8766 7.872 28.2153 8.256C27.5539 8.64 27.0312 9.18933 26.6472 9.904C26.2632 10.6187 26.0712 11.4507 26.0712 12.4C26.0712 13.3493 26.2632 14.1867 26.6472 14.912C27.0312 15.6267 27.5539 16.176 28.2153 16.56C28.8766 16.944 29.6233 17.136 30.4553 17.136ZM52.7286 6.816L49.5606 18H48.3126L45.4966 8.464L42.6166 18L41.4006 18.016L38.2966 6.816L39.4966 6.816L42.0566 16.624L44.9206 6.816H46.1686L48.9526 16.624L51.5286 6.816H52.7286ZM56.6819 7.728V11.904H60.9219V12.832H56.6819V17.072H61.4019V18H55.5619V6.8L61.4019 6.8V7.728L56.6819 7.728ZM70.6807 18L67.9127 13.328H65.8487V18H64.7287V6.816L68.0887 6.816C69.3367 6.816 70.2807 7.11467 70.9207 7.712C71.5714 8.30933 71.8967 9.09333 71.8967 10.064C71.8967 10.8747 71.6621 11.568 71.1927 12.144C70.7341 12.7093 70.0514 13.0773 69.1447 13.248L72.0247 18H70.6807ZM65.8487 12.416H68.1047C68.9794 12.416 69.6354 12.2027 70.0728 11.776C70.5208 11.3493 70.7448 10.7787 70.7448 10.064C70.7448 9.328 70.5314 8.76267 70.1047 8.368C69.6781 7.96267 69.0061 7.76 68.0887 7.76L65.8487 7.76V12.416ZM76.3594 7.728V11.904H80.5994V12.832H76.3594V17.072H81.0794V18H75.2394V6.8L81.0794 6.8V7.728L76.3594 7.728ZM87.7183 6.816C88.9556 6.816 90.0169 7.04 90.9023 7.488C91.7876 7.936 92.4649 8.58133 92.9343 9.424C93.4036 10.2667 93.6383 11.2693 93.6383 12.432C93.6383 13.584 93.4036 14.5813 92.9343 15.424C92.4649 16.256 91.7876 16.896 90.9023 17.344C90.0169 17.7813 88.9556 18 87.7183 18H84.4063V6.816H87.7183ZM87.7183 17.072C89.2756 17.072 90.4596 16.6667 91.2703 15.856C92.0916 15.0347 92.5023 13.8933 92.5023 12.432C92.5023 10.96 92.0916 9.81333 91.2703 8.992C90.4596 8.16 89.2756 7.744 87.7183 7.744H85.5263V17.072H87.7183ZM107.566 12.224C108.195 12.3413 108.728 12.6613 109.166 13.184C109.603 13.7067 109.822 14.3147 109.822 15.008C109.822 15.5733 109.678 16.0853 109.39 16.544C109.112 16.992 108.702 17.3493 108.158 17.616C107.614 17.872 106.963 18 106.206 18H102.334V6.816L106.094 6.816C107.224 6.816 108.083 7.07733 108.67 7.6C109.267 8.12267 109.566 8.8 109.566 9.632C109.566 10.3253 109.379 10.8907 109.006 11.328C108.632 11.7547 108.152 12.0533 107.566 12.224ZM103.454 11.76H106.062C106.819 11.76 107.4 11.584 107.806 11.232C108.222 10.8693 108.43 10.3733 108.43 9.744C108.43 9.12533 108.222 8.64 107.806 8.288C107.4 7.936 106.803 7.76 106.014 7.76L103.454 7.76V11.76ZM106.126 17.056C106.936 17.056 107.566 16.864 108.014 16.48C108.472 16.096 108.702 15.568 108.702 14.896C108.702 14.224 108.462 13.6907 107.982 13.296C107.512 12.8907 106.878 12.688 106.078 12.688H103.454V17.056H106.126ZM120.393 6.816L116.809 13.648V18H115.689V13.648L112.073 6.816H113.337L116.249 12.624L119.145 6.816H120.393ZM136.146 10.288C136.146 10.8853 136.002 11.4453 135.714 11.968C135.437 12.4907 134.994 12.912 134.386 13.232C133.789 13.552 133.031 13.712 132.114 13.712H130.242V18H128.002V6.832H132.114C132.978 6.832 133.714 6.98133 134.322 7.28C134.93 7.57867 135.383 7.98933 135.682 8.512C135.991 9.03467 136.146 9.62667 136.146 10.288ZM132.018 11.904C132.637 11.904 133.095 11.7653 133.394 11.488C133.693 11.2 133.842 10.8 133.842 10.288C133.842 9.2 133.234 8.656 132.018 8.656H130.242V11.904H132.018ZM141.065 6.832V13.744C141.065 14.5013 141.262 15.0827 141.657 15.488C142.051 15.8827 142.606 16.08 143.321 16.08C144.046 16.08 144.606 15.8827 145.001 15.488C145.395 15.0827 145.593 14.5013 145.593 13.744V6.832H147.849V13.728C147.849 14.6773 147.641 15.4827 147.225 16.144C146.819 16.7947 146.27 17.2853 145.577 17.616C144.894 17.9467 144.131 18.112 143.289 18.112C142.457 18.112 141.699 17.9467 141.017 17.616C140.345 17.2853 139.811 16.7947 139.417 16.144C139.022 15.4827 138.825 14.6773 138.825 13.728V6.832H141.065ZM157.469 12.272C158.098 12.3893 158.615 12.704 159.021 13.216C159.426 13.728 159.629 14.3147 159.629 14.976C159.629 15.5733 159.479 16.1013 159.181 16.56C158.893 17.008 158.471 17.36 157.917 17.616C157.362 17.872 156.706 18 155.949 18H151.133V6.832L155.741 6.832C156.498 6.832 157.149 6.95467 157.693 7.2C158.247 7.44533 158.663 7.78667 158.941 8.224C159.229 8.66133 159.373 9.15733 159.373 9.712C159.373 10.3627 159.197 10.9067 158.845 11.344C158.503 11.7813 158.045 12.0907 157.469 12.272ZM153.373 11.44H155.421C155.954 11.44 156.365 11.3227 156.653 11.088C156.941 10.8427 157.085 10.496 157.085 10.048C157.085 9.6 156.941 9.25333 156.653 9.008C156.365 8.76267 155.954 8.64 155.421 8.64H153.373V11.44ZM155.629 16.176C156.173 16.176 156.594 16.048 156.893 15.792C157.202 15.536 157.357 15.1733 157.357 14.704C157.357 14.224 157.197 13.8507 156.877 13.584C156.557 13.3067 156.125 13.168 155.581 13.168H153.373V16.176H155.629ZM164.774 16.224H168.454V18H162.534V6.832H164.774V16.224ZM173.238 6.832V18H170.998V6.832L173.238 6.832ZM176.027 12.4C176.027 11.3013 176.272 10.32 176.763 9.456C177.264 8.58133 177.942 7.904 178.795 7.424C179.659 6.93333 180.624 6.688 181.691 6.688C182.939 6.688 184.032 7.008 184.971 7.648C185.91 8.288 186.566 9.17333 186.939 10.304L184.363 10.304C184.107 9.77067 183.744 9.37067 183.275 9.104C182.816 8.83733 182.283 8.704 181.675 8.704C181.024 8.704 180.443 8.85867 179.931 9.168C179.43 9.46667 179.035 9.89333 178.747 10.448C178.47 11.0027 178.331 11.6533 178.331 12.4C178.331 13.136 178.47 13.7867 178.747 14.352C179.035 14.9067 179.43 15.3387 179.931 15.648C180.443 15.9467 181.024 16.096 181.675 16.096C182.283 16.096 182.816 15.9627 183.275 15.696C183.744 15.4187 184.107 15.0133 184.363 14.48L186.939 14.48C186.566 15.6213 185.91 16.512 184.971 17.152C184.043 17.7813 182.95 18.096 181.691 18.096C180.624 18.096 179.659 17.856 178.795 17.376C177.942 16.8853 177.264 16.208 176.763 15.344C176.272 14.48 176.027 13.4987 176.027 12.4ZM201.753 15.872H197.305L196.569 18H194.217L198.233 6.816L200.841 6.816L204.857 18H202.489L201.753 15.872ZM201.145 14.08L199.529 9.408L197.913 14.08H201.145ZM215.622 10.288C215.622 10.8853 215.478 11.4453 215.19 11.968C214.912 12.4907 214.47 12.912 213.862 13.232C213.264 13.552 212.507 13.712 211.59 13.712H209.718V18H207.478V6.832L211.59 6.832C212.454 6.832 213.19 6.98133 213.798 7.28C214.406 7.57867 214.859 7.98933 215.158 8.512C215.467 9.03467 215.622 9.62667 215.622 10.288ZM211.494 11.904C212.112 11.904 212.571 11.7653 212.87 11.488C213.168 11.2 213.318 10.8 213.318 10.288C213.318 9.2 212.71 8.656 211.494 8.656H209.718V11.904H211.494ZM220.572 6.832V18H218.332V6.832H220.572ZM227.761 18.112C226.983 18.112 226.279 17.9787 225.649 17.712C225.031 17.4453 224.54 17.0613 224.177 16.56C223.815 16.0587 223.628 15.4667 223.617 14.784H226.017C226.049 15.2427 226.209 15.6053 226.497 15.872C226.796 16.1387 227.201 16.272 227.713 16.272C228.236 16.272 228.647 16.1493 228.945 15.904C229.244 15.648 229.393 15.3173 229.393 14.912C229.393 14.5813 229.292 14.3093 229.089 14.096C228.887 13.8827 228.631 13.7173 228.321 13.6C228.023 13.472 227.607 13.3333 227.073 13.184C226.348 12.9707 225.756 12.7627 225.297 12.56C224.849 12.3467 224.46 12.032 224.129 11.616C223.809 11.1893 223.649 10.624 223.649 9.92C223.649 9.25867 223.815 8.68267 224.145 8.192C224.476 7.70133 224.94 7.328 225.537 7.072C226.135 6.80533 226.817 6.672 227.585 6.672C228.737 6.672 229.671 6.95467 230.385 7.52C231.111 8.07467 231.511 8.85333 231.585 9.856L229.121 9.856C229.1 9.472 228.935 9.15733 228.625 8.912C228.327 8.656 227.927 8.528 227.425 8.528C226.988 8.528 226.636 8.64 226.369 8.864C226.113 9.088 225.985 9.41333 225.985 9.84C225.985 10.1387 226.081 10.3893 226.273 10.592C226.476 10.784 226.721 10.944 227.009 11.072C227.308 11.1893 227.724 11.328 228.257 11.488C228.983 11.7013 229.575 11.9147 230.033 12.128C230.492 12.3413 230.887 12.6613 231.217 13.088C231.548 13.5147 231.713 14.0747 231.713 14.768C231.713 15.3653 231.559 15.92 231.249 16.432C230.94 16.944 230.487 17.3547 229.889 17.664C229.292 17.9627 228.583 18.112 227.761 18.112Z" fill="#BCBCBC"/>
<defs>
<linearGradient id="paint0_linear_733_911" x1="226.91" y1="122.5" x2="227.101" y2="150.998" gradientUnits="userSpaceOnUse">
<stop stop-color="#0D0D0D"/>
<stop offset="1" stop-color="#100E11" stop-opacity="0"/>
</linearGradient>
</defs>
</svg>
