<svg width="21" height="20" viewBox="0 0 21 20" fill="none" xmlns="http://www.w3.org/2000/svg">
<g clip-path="url(#clip0_733_885)">
<path fill-rule="evenodd" clip-rule="evenodd" d="M10.8677 20C16.3905 20 20.8677 15.5228 20.8677 10C20.8677 4.47715 16.3905 0 10.8677 0C5.34483 0 0.867676 4.47715 0.867676 10C0.867676 15.5228 5.34483 20 10.8677 20ZM11.1826 3.83508C11.0878 3.77621 10.9785 3.74505 10.8669 3.74512C10.7553 3.74505 10.6459 3.77621 10.5511 3.83508C10.4564 3.89396 10.3799 3.97819 10.3305 4.07824L8.82989 7.1186L5.47474 7.60553C5.36423 7.62145 5.26038 7.668 5.17497 7.73991C5.08956 7.81182 5.026 7.90622 4.99149 8.0124C4.95698 8.11859 4.9529 8.23231 4.97971 8.3407C5.00653 8.44908 5.06317 8.54778 5.14321 8.62563L7.57231 10.9918L6.9985 14.3342C6.97978 14.4441 6.99215 14.5569 7.03422 14.6601C7.07628 14.7633 7.14635 14.8527 7.23654 14.9183C7.32672 14.9837 7.43341 15.0227 7.54457 15.0307C7.65572 15.0388 7.76691 15.0156 7.86558 14.9638L10.8669 13.3858L13.8682 14.9638C13.9669 15.0156 14.0782 15.0388 14.1894 15.0308C14.3007 15.0227 14.4075 14.9837 14.4977 14.9181C14.5879 14.8525 14.658 14.763 14.7 14.6596C14.742 14.5563 14.7542 14.4433 14.7353 14.3334L14.1623 10.9926L16.5898 8.62563C16.6696 8.54775 16.726 8.4491 16.7527 8.34084C16.7794 8.23257 16.7752 8.119 16.7407 8.01296C16.7062 7.90692 16.6428 7.81265 16.5575 7.74079C16.4722 7.66893 16.3686 7.62236 16.2582 7.60633L12.9031 7.1186L11.4032 4.07824C11.3538 3.97819 11.2774 3.89396 11.1826 3.83508Z" fill="#24292F"/>
</g>
<defs>
<clipPath id="clip0_733_885">
<rect width="20" height="20" fill="white" transform="translate(0.867676)"/>
</clipPath>
</defs>
</svg>
