<svg width="20" height="20" viewBox="0 0 20 20" fill="none" xmlns="http://www.w3.org/2000/svg">
<path fill-rule="evenodd" clip-rule="evenodd" d="M10 20C15.5228 20 20 15.5228 20 10C20 4.47715 15.5228 0 10 0C4.47715 0 0 4.47715 0 10C0 15.5228 4.47715 20 10 20ZM13.7888 4.99969C12.337 4.99976 10.9446 5.57654 9.91803 6.60317L9.63087 6.88971C9.43442 7.08616 9.24548 7.29074 9.0653 7.5022H7.0608C6.87385 7.50225 6.69003 7.55018 6.52685 7.6414C6.36368 7.73263 6.22658 7.86412 6.12862 8.02334L5.0588 9.75883C5.02124 9.81983 4.99815 9.88862 4.9913 9.95992C4.98444 10.0312 4.994 10.1032 5.01925 10.1702C5.04449 10.2372 5.08475 10.2976 5.13693 10.3467C5.18912 10.3957 5.25185 10.4322 5.32031 10.4533L7.261 11.0501L8.94894 12.7381L9.54578 14.6788C9.56686 14.7472 9.60333 14.8099 9.6524 14.8621C9.70147 14.9143 9.76184 14.9546 9.82887 14.9798C9.89591 15.0051 9.96784 15.0146 10.0391 15.0078C10.1104 15.0009 10.1792 14.9778 10.2402 14.9403L11.9757 13.8723C12.1349 13.7743 12.2664 13.6373 12.3577 13.4741C12.4489 13.3109 12.4968 13.1271 12.4969 12.9401V10.9338C12.7083 10.7536 12.9129 10.5646 13.1094 10.3682L13.3959 10.081C14.4226 9.05471 14.9996 7.66261 15 6.21091V6.09454C15 5.80417 14.8846 5.52569 14.6793 5.32037C14.474 5.11504 14.1955 4.99969 13.9052 4.99969H13.7888ZM7.40467 13.9303C7.34943 14.0543 7.26977 14.1659 7.17046 14.2584C6.67718 14.7517 5.59762 14.9626 5.14544 15.0321C5.12107 15.0362 5.09607 15.0344 5.07253 15.0269C5.04899 15.0193 5.02759 15.0063 5.01011 14.9888C4.99263 14.9713 4.97959 14.9499 4.97207 14.9264C4.96455 14.9029 4.96276 14.8779 4.96687 14.8535C5.03628 14.4013 5.2472 13.3217 5.74183 12.8298C5.83437 12.7305 5.94597 12.6508 6.06996 12.5956C6.19395 12.5404 6.3278 12.5107 6.46353 12.5082C6.59925 12.5059 6.73406 12.5308 6.85993 12.5817C6.98579 12.6325 7.10013 12.7082 7.19612 12.8041C7.2921 12.9002 7.36777 13.0145 7.41861 13.1403C7.46945 13.2662 7.49442 13.401 7.49202 13.5367C7.48963 13.6725 7.45992 13.8063 7.40467 13.9303Z" fill="#24292F"/>
</svg>
