<svg width="21" height="20" viewBox="0 0 21 20" fill="none" xmlns="http://www.w3.org/2000/svg">
<g clip-path="url(#clip0_733_859)">
<path fill-rule="evenodd" clip-rule="evenodd" d="M10.5 20C16.0228 20 20.5 15.5228 20.5 10C20.5 4.47715 16.0228 0 10.5 0C4.97715 0 0.5 4.47715 0.5 10C0.5 15.5228 4.97715 20 10.5 20ZM7.375 5C6.33947 5 5.5 5.83947 5.5 6.875V13.125C5.5 14.1605 6.125 15 6.75 15V13.75C6.75 13.0596 7.30964 12.5 8 12.5H14.25V13.75H13V15H14.875C15.2202 15 15.5 14.7202 15.5 14.375V5.625C15.5 5.27982 15.2202 5 14.875 5H7.375ZM8 14.0625C8 13.8899 8.13991 13.75 8.3125 13.75H11.75V17.2052C11.75 17.4827 11.4152 17.6225 11.2178 17.4275L10.0947 16.3174C9.97294 16.197 9.77706 16.197 9.65532 16.3174L8.53218 17.4275C8.33479 17.6225 8 17.4827 8 17.2052V14.0625Z" fill="#EEFAFF"/>
</g>
<defs>
<clipPath id="clip0_733_859">
<rect width="20" height="20" fill="white" transform="translate(0.5)"/>
</clipPath>
</defs>
</svg>
